<?xml version="1.0" encoding="UTF-8"?>
<svg width="212px" height="90px" viewBox="0 0 212 90" version="1.1" xmlns="http://www.w3.org/2000/svg" xmlns:xlink="http://www.w3.org/1999/xlink">
    <!-- Generator: Sketch 59.1 (86144) - https://sketch.com -->
    <title>Welcometoourjourney!</title>
    <desc>Created with Sketch.</desc>
    <g id="Page-1" stroke="none" stroke-width="1" fill="none" fill-rule="evenodd">
        <g id="iPhone-11-Copy-3" transform="translate(-108.000000, -363.000000)" fill="#FFFFFF" fill-rule="nonzero">
            <path d="M161.710624,366.168052 L161.524,366.112 C161.164,365.968 160.948,366.184 160.804,366.436 C159.976,367.696 159.148,368.956 158.356,370.216 C157.744,371.116 157.276,372.052 156.664,372.916 C155.368,374.716 154.144,376.516 152.92,378.316 C151.048,381.124 149.284,384.04 147.628,386.956 C146.908,388.216 146.08,389.44 145.288,390.664 L145.19296,390.82384 C145.05472,391.04272 144.8704,391.2616 144.64,391.204 C144.208,391.06 144.604,390.7 144.604,390.448 C144.604,390.124 144.676,389.836 144.748,389.548 L146.188,382.384 C146.368,381.412 146.296,380.404 146.476,379.432 C146.692,378.46 146.548,377.56 146.332,376.66 C146.188,375.976 146.224,375.436 146.476,374.824 L146.560355,374.579751 C146.686888,374.192402 146.658769,374.084615 146.476,373.384 C146.044,373.42 145.576,373.456 145.252,373.78 C144.82,374.212 144.388,374.69008 143.974432,375.195808 L143.668,375.58 C143.092,376.264 142.624,377.056 142.084,377.776 C141.04,379.108 140.068,380.548 139.132,381.988 C138.124,383.536 137.008,385.084 136.072,386.704 C135.892,387.028 135.784,387.424 135.352,387.568 C135.028,387.172 135.496,386.884 135.496,386.524 C135.532,386.38 135.568,386.2 135.64,386.056 C135.9856,384.7024 136.3312,383.32576 136.713664,381.981376 L137.608775,378.929136 C138.142149,377.111339 138.644364,375.295273 138.88,373.384 C139.024,372.16 138.736,371.116 137.836,370.252 C137.5336,369.9496 136.47856,369.61584 136.046539,369.748299 L135.964,369.784 C135.46,370.036 134.992,370.072 134.488,370.18 C133.74,370.282 133.57,370.384 133.735383,371.153198 L133.768,371.296 C133.876,371.728 133.948,372.124 133.84,372.556 L133.619392,373.819168 C133.542784,374.241376 133.461568,374.662432 133.371136,375.075424 L133.228,375.688 C132.868,377.236 132.508,378.784 132.112,380.296 C131.608,382.168 131.068,384.004 130.6,385.876 C130.132,387.604 129.52,389.296 129.196,391.096 C128.8,393.4 129.484,395.38 130.888,397.18 C131.176,397.5 131.549333,397.564 131.932148,397.574272 L132.076,397.576 C132.472,397.612 132.544,397.288 132.688,397.036 C132.76,396.928 132.868,396.856 132.94,396.748 C132.76,396.316 133.012,395.92 133.156,395.56 C133.316,395.176 133.561333,394.905778 133.993136,394.749333 L134.164,394.696 C134.956,394.48 135.748,394.084 136.18,393.4 C136.864,392.284 137.728,391.312 138.232,390.124 C138.295,389.998 138.440687,389.872 138.403773,389.746 L138.376,389.692 C138.16,389.296 138.34,389.008 138.592,388.792 C139.024,388.396 139.312,387.928 139.6,387.46 C140.5,385.948 141.4,384.472 142.336,382.96 C142.444,382.78 142.48,382.456 142.912,382.492 L142.912,382.996 C142.66,384.256 142.408,385.516 142.12,386.74 C141.76,388.144 141.4,389.548 141.22,390.988 C141.112,392.14 141.04,393.292 141.292,394.444 C141.472,395.128 141.724,395.74 142.372,396.136 L142.336,396.1 C142.525,396.289 142.741562,396.395312 142.985687,396.370703 L143.092,396.352 C143.38,396.316 143.668,396.244 143.956,396.208 L144.244379,396.224282 C145.122876,396.265124 145.206182,396.149091 145.468,395.2 C145.576,394.804 145.756,394.552 146.08,394.408 C146.692,394.156 147.088,393.652 147.484,393.148 L147.765333,392.818667 C147.952,392.6 148.144,392.392 148.384,392.248 C149.284,391.708 149.788,390.88 150.328,390.052 C150.9328,389.1304 151.5376,388.16272 152.087104,387.185824 L152.488,386.452 C153.748,384.112 155.152,381.844 156.556,379.612 C157.636,377.884 158.752,376.228 159.832,374.536 L159.94225,374.400438 C160.03225,374.286531 160.108188,374.169109 160.09975,374.039383 L160.084,373.96 C159.904,373.276 160.264,372.736 160.588,372.16 C161.056,371.404 161.344,370.576 161.344,369.64 L161.346813,369.162669 C161.359471,368.439207 161.429091,367.689455 161.812,367.012 C161.8696,366.8968 161.85808,366.75856 161.8696,366.615712 L161.884,366.508 C161.9344,366.2812 161.84368,366.21316 161.710624,366.168052 L161.710624,366.168052 Z M155.548,390.664 C155.584,389.476 155.764,388.36 155.98,387.208 L156.304,385.3 C156.376,384.976 156.448,384.688 156.592,384.4 C156.88,383.752 157.132,383.068 157.024,382.312 C156.988,382.06 157.096,381.772 157.132,381.52 C157.6,379.468 158.212,377.416 158.824,375.4 C159.004,374.824 159.184,374.248 159.328,373.636 C159.544,372.844 159.904,372.052 160.192,371.26 C160.3,370.972 160.48,370.864 160.804,370.828 C160.984,370.828 161.164,370.756 161.344,370.72 C162.1,370.504 162.82,370.324 163.468,370.936 C163.6255,371.0935 163.838125,371.085625 164.033523,371.008844 L164.116,370.972 C164.26,370.9 164.404,370.864 164.548,370.792 C166.96,369.604 169.516,368.776 172,367.696 C172.936,367.3 173.944,367.048 174.952,366.724 C175.492,366.544 176.032,366.364 176.608,366.22 C176.896,366.112 177.184,366.076 177.508,366.04 C177.76,366.04 178.048,366.4 177.904,366.616 C177.616,366.976 177.724,367.444 177.472,367.804 C177.256,368.128 176.968,368.38 176.824,368.812 C176.752,369.1 176.428,369.244 176.104,369.352 C175.764571,369.475429 175.451592,369.678204 175.210402,369.937656 L175.096,370.072 C174.592,370.72 173.908,371.044 173.188,371.296 C172.504,371.584 171.856,371.944 171.244,372.268 C169.372,373.204 167.572,374.212 165.628,374.932 C165.412,375.04 165.196,375.148 164.98,375.184 C164.08,375.184 163.864,375.76 163.648,376.48 C163.324,377.668 162.892,378.82 162.532,379.972 L161.92,382.096 C161.884,382.312 162.064,382.456 162.28,382.42 L165.052,381.664 C165.772,381.484 166.492,381.448 167.248,381.448 C167.536,381.484 167.644,381.628 167.608,381.916 C167.577143,382.132 167.493388,382.321551 167.538099,382.507324 L167.572,382.6 C167.608,382.672 167.608,382.78 167.572,382.816 C167.104,383.176 166.96,383.86 166.348,384.112 C165.988,384.256 165.664,384.472 165.592,384.94 C165.52,385.156 165.304,385.264 165.088,385.408 C164.368,385.84 163.612,386.2 162.784,386.38 C162.316,386.488 161.812,386.524 161.308,386.38 C160.768,386.2 160.732,386.236 160.588,386.884 C160.156,388.288 160.012,389.728 159.724,391.132 C159.652,391.384 159.688,391.6 159.688,391.852 C159.688,392.032 159.94,392.14 160.12,392.032 C160.408,391.852 160.696,391.672 160.984,391.456 C162.964,389.98 165.088,388.756 167.356,387.784 C167.968,387.532 168.58,387.28 169.228,387.244 C169.696,387.208 169.768,387.388 169.912,387.82 C170.128,388.396 169.804,388.9 169.768,389.476 C169.732,389.872 169.372,390.196 169.084,390.484 L168.784188,390.751188 C168.4855,391.0195 168.202,391.303 168.04,391.708 C167.968,391.816 167.824,391.888 167.68,391.996 L165.196,393.6565 C164.368,394.21 163.54,394.768 162.712,395.344 C161.992,395.848 161.2,396.064 160.408,396.316 C160.192,396.388 160.012,396.352 159.832,396.352 C158.752,396.28 157.816,395.812 157.06,395.056 C156.088,394.048 155.548,392.788 155.548,391.348 L155.548,390.664 Z M183.592,395.128 C183.34,395.596 182.98,395.884 182.584,396.1 C181.972,396.388 181.432,396.748 180.784,396.964 C180.136,397.144 179.488,397.36 178.84,397.576 C178.192,397.792 177.508,397.9 176.86,397.936 C175.276,397.972 173.8,397.504 172.756,396.208 C172.072,395.38 171.604,394.444 171.1,393.472 C170.884,393.04 170.812,392.608 170.848,392.104 C171.208,389.44 171.604,386.776 172.036,384.112 C172.432,381.412 172.972,378.748 173.404,376.048 C173.764,373.96 174.124,371.908 174.52,369.856 C174.6352,369.28 174.70432,368.704 174.72736,368.128 L174.736,367.696 C174.736,367.12 174.988,366.94 175.564,367.12 C175.924,367.192 176.284,367.28 176.644,367.373333 L177.184,367.516 C178.66,367.84 180.1,369.388 180.1,371.26 C180.064,372.448 179.776,373.564 179.632,374.716 C179.524,375.652 179.236,376.552 179.02,377.452 C178.732,378.964 178.48,380.476 178.192,381.988 L177.544,385.372 C177.184,387.568 176.788,389.764 176.428,391.96 C176.32,392.572 176.212,393.148 176.176,393.76 C176.14,394.48 176.284,394.624 176.968,394.84 C178.984,395.488 181,395.596 183.052,395.164 C183.16,395.128 183.304,395.128 183.412,395.092 C183.484,395.092 183.52,395.128 183.592,395.128 Z M195.976,388.504 C196.012,388.828 196.084,389.152 196.12,389.476 C196.156,389.836 196.192,390.196 196.12,390.484 C196.012,390.952 195.724,391.348 195.58,391.78 C195.436,392.176 195.652,392.644 195.328,393.004 C195.22,393.112 195.148,393.22 195.148,393.364 C195.04,394.444 194.356,395.308 193.852,396.208 C193.708,396.46 193.636,396.676 193.528,396.928 C193.456,397.108 193.348,397.324 193.24,397.504 C193.096,397.72 192.88,397.828 192.628,397.9 C191.692,398.188 191.08,399.16 189.964,398.98 C189.748,398.944 189.568,398.872 189.424,398.692 C189.388,398.584 189.244,398.44 189.172,398.44 C188.056,398.548 187.624,397.468 186.76,397.144 C186.688,397.108 186.616,397.036 186.58,396.964 C185.5,395.164 184.78,393.292 184.888,391.132 C184.996,389.44 185.068,387.712 185.176,386.02 C185.284,384.652 185.464,383.284 185.608,381.916 C185.68,381.448 185.716,380.98 185.716,380.512 C185.788,379.54 186.04,378.568 186.256,377.632 C186.76,375.184 187.3,372.772 188.236,370.468 C189.028,368.488 189.928,366.616 191.44,365.104 C191.62,364.888 191.764,364.672 191.872,364.492 C192.052,364.24 192.304,363.952 192.556,363.916 C193.672,363.7 194.752,363.196 195.94,363.484 C197.344,363.808 198.388,364.888 198.424,366.328 L198.466667,367.696 C198.488,368.608 198.472,369.52 198.28,370.432 C198.244,370.648 198.208,370.864 198.244,371.08 C198.28,372.448 198.028,373.816 198.028,375.184 C197.992,376.48 197.74,377.74 197.704,379 C197.668,379.828 197.02,380.152 196.516,380.584 C196.444,380.656 196.264,380.656 196.156,380.62 C195.472,380.44 194.824,380.188 194.536,379.468 C194.32,378.856 194.14,378.244 194.5,377.632 C194.644,377.416 194.68,377.164 194.716,376.876 C194.788,375.58 194.896,374.248 194.968,372.916 C195.04,371.8 195.148,370.684 195.184,369.568 C195.184,368.848 195.112,368.128 195.04,367.408 C195.04,367.3 194.932,367.156 194.86,367.12 C194.752,367.084 194.572,367.12 194.5,367.192 C194.068,367.624 193.708,368.092 193.492,368.668 C192.808,370.468 192.016,372.232 191.476,374.068 C191.332,374.572 191.296,375.076 191.152,375.58 C190.912,376.42 190.688,377.276 190.458667,378.126667 L190.108,379.396 C189.532,381.448 189.1,383.536 188.92,385.696 C188.8,386.686 188.605,387.676 188.5225,388.666 L188.488,389.26 C188.416,390.844 188.056,392.464 188.416,394.084 C188.524,394.732 188.668,395.344 188.992,395.92 C189.208,396.316 189.46,396.388 189.82,396.136 L190.258667,395.808 C190.552,395.584 190.84,395.344 191.08,395.056 C192.484,393.4 193.852,391.708 195.04,389.872 L195.2965,389.494 C195.382,389.368 195.472,389.242 195.58,389.116 C195.724,388.936 195.688,388.612 195.976,388.504 Z M213.904,380.476 C214.264,381.952 213.724,383.5 213.58,385.084 C213.472,386.308 212.86,387.46 212.248,388.54 C211.708,389.44 211.06,390.304 210.448,391.168 C210.124,391.672 209.656,391.924 209.26,392.284 C208.324,393.22 207.352,394.084 206.452,395.02 C205.6456,395.8552 204.70096,396.2296 203.71024,396.530272 L202.96,396.748 C201.91375,397.0855 200.994063,396.790188 200.111948,396.247683 L199.7605,396.0235 C199.73125,396.00325 199.703125,395.981875 199.677812,395.958812 L199.612,395.884 C198.712,394.876 197.884,393.868 197.488,392.464 C197.092,391.024 196.84,389.584 196.768,388.072 C196.696,385.912 197.056,383.896 197.668,381.916 C198.64,378.928 199.9,376.12 201.34,373.42 C201.852,372.396 202.420889,371.372 203.147802,370.47442 L203.428,370.144 C203.824,369.676 204.256,369.28 204.868,369.316 C205.12,369.316 205.372,369.244 205.624,369.136 C205.948,368.956 206.272,368.992 206.596,369.1 C206.926,369.22 207.206,369.265 207.519333,369.235 L207.712,369.208 C208.576,369.028 209.62,370.072 209.584,371.116 C209.548,371.728 209.764,371.98 210.232,372.124 C210.988,372.34 211.564,372.772 211.924,373.564 C211.996,373.744 212.104,373.888 212.212,374.032 C213.724,375.688 214.012,377.812 213.904,380.044 L213.904,380.476 Z M205.444,382.564 C204.74,382.276 204.292,381.988 203.872444,381.57358 L203.716,381.412 C203.428,381.088 203.14,381.196 202.96,381.664 C202.6,382.564 202.348,383.464 201.988,384.364 C201.304,386.056 201.016,387.856 200.98,389.728 C200.944,390.412 201.088,391.06 201.196,391.744 C201.268,392.14 201.484,392.464 201.736,392.716 C202.06,393.112 202.348,393.184 202.78,392.932 C203.14,392.716 203.536,392.464 203.86,392.176 C206.02,390.232 207.928,388 209.332,385.3 C210.412,383.284 211.024,381.088 211.168,378.712 C211.24,377.776 211.132,376.876 210.988,375.976 C210.88,375.544 210.736,375.148 210.52,374.788 C210.268,374.428 210.016,374.356 209.728,374.572 L209.319616,374.916448 C208.78048,375.3784 208.2736,375.868 207.928,376.588 C207.352,377.848 206.668,379.036 206.164,380.296 C205.876,380.98 205.264,381.52 205.444,382.564 Z M229.024,385.732 C229.492,385.48 229.78,385.12 230.068,384.76 C231.832,382.816 233.38,380.728 234.928,378.64 C235.54,377.848 236.116,377.056 236.692,376.228 C237.124,375.616 237.664,375.328 238.42,375.4 C238.996,375.472 239.572,375.472 240.148,375.616 C240.436,375.724 240.616,375.832 240.652,376.12 C240.688,376.696 240.94,377.164 241.264,377.632 C241.66,378.244 241.696,378.928 241.408,379.576 L241.09984,380.399104 C240.94864,380.81296 240.8104,381.232 240.724,381.664 L240.54,382.529333 C240.42,383.108 240.316,383.692 240.292,384.292 C240.256,385.624 239.968,386.92 239.824,388.252 C239.716,389.683 239.608,391.114 239.515188,392.560187 L239.428,394.012 C239.392,394.336 239.536,394.48 239.824,394.48 C239.932,394.516 240.004,394.516 240.076,394.48 C240.328,394.48 240.58,394.3 240.832,394.516 C240.976,394.624 240.868,395.164 240.58,395.416 C240.004,395.92 239.5,396.496 238.996,397.072 C238.78,397.324 238.456,397.432 238.168,397.216 C237.988,397.108 237.808,397.036 237.592,397.072 C237.232,397.108 236.908,396.928 236.656,396.712 C236.296,396.352 235.936,396.064 235.54,395.848 C235.324,395.755429 235.160898,395.557061 235.096035,395.366251 L235.072,395.272 C234.856,394.228 234.316,393.292 234.388,392.176 C234.496,390.592 234.352,389.008 234.568,387.424 C234.604,387.136 234.568,386.812 234.532,386.524 C234.532,386.38 234.28,386.272 234.136,386.38 L233.177536,387.149536 C232.69888,387.53488 232.228,387.928 231.796,388.36 C231.256,388.972 230.644,389.476 229.96,389.944 C229.456,390.34 228.988,390.772 228.592,391.276 C227.836,392.176 226.9,392.212 226.144,391.528 C225.496,390.952 225.208,390.232 225.172,389.368 C225.172,389.224 225.172,388.972 225.28,388.9 C225.678769,388.567692 225.740118,388.266059 225.464047,387.910156 L225.388,387.82 C225.233714,387.665714 225.238122,387.48498 225.265201,387.300466 L226.036,382.132 C226.18,381.34 226.324,380.512 226.432,379.72 C226.468,379.504 226.432,379.288 226.396,379.072 C226.396,379.036 226.288,378.964 226.216,378.928 C226.18,378.928 226.072,378.964 226,379.036 L225.8245,379.306 C225.766,379.396 225.712,379.486 225.676,379.576 C225.28,380.512 224.884,381.448 224.524,382.42 L224.385333,382.824 C224.292,383.096 224.188,383.368 224.02,383.608 C223.12,384.976 222.364,386.488 221.284,387.784 C220.636,388.54 220.276,389.368 220.204,390.304 C220.132,391.78 219.88,393.22 219.7,394.66 C219.676,394.876 219.652,395.108 219.638667,395.334667 L219.628,395.668 C219.628,396.1 219.52,396.424 219.088,396.568 C218.944,396.604 218.836,396.64 218.728,396.748 C218.188,397.3555 217.648,397.235266 217.048674,396.921232 L216.928,396.856 C216.496,396.64 216.1,396.352 215.776,396.028 C215.632,395.848 215.488,395.668 215.452,395.488 L215.293043,394.77963 C215.152397,394.147372 215.042909,393.504727 215.2,392.824 C215.308,392.536 215.344,392.248 215.308,391.96 C215.2,390.016 215.488,388.108 215.74,386.2 L216.1585,383.14 C216.298,382.123 216.442,381.106 216.604,380.08 C216.856,378.136 217.216,376.192 217.504,374.248 C217.72,372.952 217.9,371.656 218.08,370.324 C218.152,369.892 218.08,369.496 217.972,369.064 C217.864,368.416 217.936,368.416 218.584,368.02 C219.376,367.588 220.132,367.588 220.924,367.804 C222.148,368.092 222.796,368.956 222.94,370.18 C223.048,370.936 223.084,371.728 223.084,372.484 C223.012,373.492 223.012,374.536 222.796,375.544 C222.58,376.408 222.58,377.344 222.436,378.208 C222.292,379 221.968,379.756 221.896,380.584 C221.896,380.728 221.896,380.836 221.932,380.944 C221.932,380.98 222.076,381.052 222.148,381.016 C222.22,380.98 222.292,380.908 222.328,380.872 C222.796,380.152 223.3,379.468 223.732,378.712 C224.236,377.884 224.596,376.948 225.316,376.228 C225.388,376.192 225.424,376.084 225.46,376.012 C225.748,374.716 226.684,373.78 227.296,372.664 C227.62,372.088 228.196,371.944 228.772,371.728 C229.204,371.584 229.564,372.052 229.996,371.98 C230.068,371.944 230.212,372.124 230.248,372.232 L230.384687,372.638687 C230.518,373.04875 230.626,373.474 230.572,373.96 L230.388,375.16 C230.268,375.968 230.164,376.792 230.14,377.632 C230.078286,378.804571 229.857878,379.950694 229.66014,381.115708 L229.564,381.7 C229.384,382.924 229.132,384.148 228.916,385.372 C228.916,385.444 228.988,385.588 229.024,385.732 Z M242.308,390.664 C242.344,389.476 242.524,388.36 242.74,387.208 L243.064,385.3 C243.136,384.976 243.208,384.688 243.352,384.4 C243.64,383.752 243.892,383.068 243.784,382.312 C243.748,382.06 243.856,381.772 243.892,381.52 C244.36,379.468 244.972,377.416 245.584,375.4 C245.764,374.824 245.944,374.248 246.088,373.636 C246.304,372.844 246.664,372.052 246.952,371.26 C247.06,370.972 247.24,370.864 247.564,370.828 C247.744,370.828 247.924,370.756 248.104,370.72 L248.404395,370.637312 C249.05072,370.47008 249.6664,370.4056 250.228,370.936 C250.3855,371.0935 250.598125,371.085625 250.793523,371.008844 L250.876,370.972 C251.02,370.9 251.164,370.864 251.308,370.792 C253.72,369.604 256.276,368.776 258.76,367.696 C259.696,367.3 260.704,367.048 261.712,366.724 C262.252,366.544 262.792,366.364 263.368,366.22 C263.656,366.112 263.944,366.076 264.268,366.04 C264.52,366.04 264.808,366.4 264.664,366.616 C264.376,366.976 264.484,367.444 264.232,367.804 C264.016,368.128 263.728,368.38 263.584,368.812 C263.512,369.1 263.188,369.244 262.864,369.352 C262.524571,369.475429 262.211592,369.678204 261.970402,369.937656 L261.856,370.072 C261.352,370.72 260.668,371.044 259.948,371.296 C259.264,371.584 258.616,371.944 258.004,372.268 C256.132,373.204 254.332,374.212 252.388,374.932 C252.172,375.04 251.956,375.148 251.74,375.184 C250.84,375.184 250.624,375.76 250.408,376.48 C250.084,377.668 249.652,378.82 249.292,379.972 L248.68,382.096 C248.644,382.312 248.824,382.456 249.04,382.42 L251.812,381.664 C252.532,381.484 253.252,381.448 254.008,381.448 C254.296,381.484 254.404,381.628 254.368,381.916 C254.337143,382.132 254.253388,382.321551 254.298099,382.507324 L254.332,382.6 C254.368,382.672 254.368,382.78 254.332,382.816 C253.864,383.176 253.72,383.86 253.108,384.112 C252.748,384.256 252.424,384.472 252.352,384.94 C252.28,385.156 252.064,385.264 251.848,385.408 C251.128,385.84 250.372,386.2 249.544,386.38 C249.076,386.488 248.572,386.524 248.068,386.38 C247.528,386.2 247.492,386.236 247.348,386.884 C246.916,388.288 246.772,389.728 246.484,391.132 C246.412,391.384 246.448,391.6 246.448,391.852 C246.448,392.032 246.7,392.14 246.88,392.032 C247.168,391.852 247.456,391.672 247.744,391.456 C249.724,389.98 251.848,388.756 254.116,387.784 C254.728,387.532 255.34,387.28 255.988,387.244 C256.456,387.208 256.528,387.388 256.672,387.82 C256.888,388.396 256.564,388.9 256.528,389.476 C256.492,389.872 256.132,390.196 255.844,390.484 L255.544187,390.751188 C255.2455,391.0195 254.962,391.303 254.8,391.708 C254.728,391.816 254.584,391.888 254.44,391.996 L251.956,393.6565 C251.128,394.21 250.3,394.768 249.472,395.344 C248.752,395.848 247.96,396.064 247.168,396.316 C246.952,396.388 246.772,396.352 246.592,396.352 C245.512,396.28 244.576,395.812 243.82,395.056 C242.848,394.048 242.308,392.788 242.308,391.348 L242.308,390.664 Z M298.36,368.056 C297.568,368.38 296.848,368.632 296.128,368.956 C295.732,369.136 295.3,369.352 294.976,369.712 C294.256,370.576 293.284,371.008 292.312,371.476 L291.8845,371.6245 C291.745,371.674 291.61,371.728 291.484,371.8 C290.008,372.88 288.244,373.384 286.66,374.176 L284.104,375.364 C283.564,375.58 283.276,375.904 283.276,376.516 C283.348,378.748 282.916,380.944 282.412,383.104 C282.376,383.356 282.268,383.608 282.268,383.86 C282.124,385.444 281.692,386.956 281.224,388.468 C280.72,390.16 280.324,391.924 279.892,393.652 C279.748,394.336 279.424,394.948 279.1,395.56 C278.704,396.316 278.38,397.18 277.876,397.9 C277.696,398.152 277.48,398.332 277.228,398.512 C276.78925,398.81575 276.192297,398.644891 276.000739,398.118074 L275.968,398.008 C275.86,397.72 275.86,397.432 275.86,397.108 C275.86,396.28 275.932,395.416 276.076,394.588 C276.328,393.364 276.436,392.104 276.616,390.88 C276.868,389.152 277.372,387.46 277.84,385.768 C278.224,384.376 278.64,382.984 279.045333,381.592 L279.64,379.504 C279.82,378.892 280.036,378.244 279.928,377.596 C279.631,377.569 279.39475,377.68375 279.173688,377.81875 L278.956,377.956 C278.092,378.496 277.264,379.108 276.364,379.576 C275.032,380.296 273.664,380.836 272.152,380.944 C271.144,381.052 270.316,380.656 269.488,380.188 C269.452,380.188 269.38,380.152 269.38,380.116 C269.308,379.432 268.84,379.036 268.444,378.532 C268.372,378.424 268.372,378.172 268.588,378.136 C270.28,377.776 271.612,376.732 273.052,375.904 L274.888,374.932 C278.704,372.916 282.7,371.26 286.732,369.748 C289.648,368.632 292.636,367.732 295.624,366.832 C296.812,366.472 298.036,366.256 299.26,365.968 C299.476,365.932 299.692,365.932 299.908,365.932 C299.944,365.932 300.052,366.04 300.052,366.112 C300.052,366.184 300.052,366.292 299.98,366.328 C299.908,366.436 299.8,366.508 299.692,366.58 C299.152,366.832 298.612,367.084 298.072,367.372 C297.775,367.504 297.75025,367.5755 298.025479,367.808333 L298.108,367.876 C298.18,367.948 298.252,367.984 298.36,368.056 Z M302.464,380.476 C302.824,381.952 302.284,383.5 302.14,385.084 C302.032,386.308 301.42,387.46 300.808,388.54 C300.268,389.44 299.62,390.304 299.008,391.168 C298.684,391.672 298.216,391.924 297.82,392.284 C296.884,393.22 295.912,394.084 295.012,395.02 C294.2056,395.8552 293.26096,396.2296 292.27024,396.530272 L291.52,396.748 C290.47375,397.0855 289.554062,396.790188 288.671948,396.247683 L288.3205,396.0235 C288.29125,396.00325 288.263125,395.981875 288.237813,395.958812 L288.172,395.884 C287.272,394.876 286.444,393.868 286.048,392.464 C285.652,391.024 285.4,389.584 285.328,388.072 C285.256,385.912 285.616,383.896 286.228,381.916 C287.2,378.928 288.46,376.12 289.9,373.42 C290.412,372.396 290.980889,371.372 291.707802,370.47442 L291.988,370.144 C292.384,369.676 292.816,369.28 293.428,369.316 C293.68,369.316 293.932,369.244 294.184,369.136 C294.508,368.956 294.832,368.992 295.156,369.1 C295.486,369.22 295.766,369.265 296.079333,369.235 L296.272,369.208 C297.136,369.028 298.18,370.072 298.144,371.116 C298.108,371.728 298.324,371.98 298.792,372.124 C299.548,372.34 300.124,372.772 300.484,373.564 C300.556,373.744 300.664,373.888 300.772,374.032 C302.284,375.688 302.572,377.812 302.464,380.044 L302.464,380.476 Z M294.004,382.564 C293.3,382.276 292.852,381.988 292.432444,381.57358 L292.276,381.412 C291.988,381.088 291.7,381.196 291.52,381.664 C291.16,382.564 290.908,383.464 290.548,384.364 C289.864,386.056 289.576,387.856 289.54,389.728 C289.504,390.412 289.648,391.06 289.756,391.744 C289.828,392.14 290.044,392.464 290.296,392.716 C290.62,393.112 290.908,393.184 291.34,392.932 C291.7,392.716 292.096,392.464 292.42,392.176 C294.58,390.232 296.488,388 297.892,385.3 C298.972,383.284 299.584,381.088 299.728,378.712 C299.8,377.776 299.692,376.876 299.548,375.976 C299.44,375.544 299.296,375.148 299.08,374.788 C298.828,374.428 298.576,374.356 298.288,374.572 L297.879616,374.916448 C297.34048,375.3784 296.8336,375.868 296.488,376.588 C295.912,377.848 295.228,379.036 294.724,380.296 C294.436,380.98 293.824,381.52 294.004,382.564 Z M125.794,424.476 C126.154,425.952 125.614,427.5 125.47,429.084 C125.362,430.308 124.75,431.46 124.138,432.54 C123.598,433.44 122.95,434.304 122.338,435.168 C122.014,435.672 121.546,435.924 121.15,436.284 C120.214,437.22 119.242,438.084 118.342,439.02 C117.5356,439.8552 116.59096,440.2296 115.60024,440.530272 L114.85,440.748 C113.80375,441.0855 112.884062,440.790188 112.001948,440.247683 L111.6505,440.0235 C111.62125,440.00325 111.593125,439.981875 111.567813,439.958812 L111.502,439.884 C110.602,438.876 109.774,437.868 109.378,436.464 C108.982,435.024 108.73,433.584 108.658,432.072 C108.586,429.912 108.946,427.896 109.558,425.916 C110.53,422.928 111.79,420.12 113.23,417.42 C113.742,416.396 114.310889,415.372 115.037802,414.47442 L115.318,414.144 C115.714,413.676 116.146,413.28 116.758,413.316 C117.01,413.316 117.262,413.244 117.514,413.136 C117.838,412.956 118.162,412.992 118.486,413.1 C118.816,413.22 119.096,413.265 119.409333,413.235 L119.602,413.208 C120.466,413.028 121.51,414.072 121.474,415.116 C121.438,415.728 121.654,415.98 122.122,416.124 C122.878,416.34 123.454,416.772 123.814,417.564 C123.886,417.744 123.994,417.888 124.102,418.032 C125.614,419.688 125.902,421.812 125.794,424.044 L125.794,424.476 Z M117.334,426.564 C116.63,426.276 116.182,425.988 115.762444,425.57358 L115.606,425.412 C115.318,425.088 115.03,425.196 114.85,425.664 C114.49,426.564 114.238,427.464 113.878,428.364 C113.194,430.056 112.906,431.856 112.87,433.728 C112.834,434.412 112.978,435.06 113.086,435.744 C113.158,436.14 113.374,436.464 113.626,436.716 C113.95,437.112 114.238,437.184 114.67,436.932 C115.03,436.716 115.426,436.464 115.75,436.176 C117.91,434.232 119.818,432 121.222,429.3 C122.302,427.284 122.914,425.088 123.058,422.712 C123.13,421.776 123.022,420.876 122.878,419.976 C122.77,419.544 122.626,419.148 122.41,418.788 C122.158,418.428 121.906,418.356 121.618,418.572 L121.209616,418.916448 C120.67048,419.3784 120.1636,419.868 119.818,420.588 C119.242,421.848 118.558,423.036 118.054,424.296 C117.766,424.98 117.154,425.52 117.334,426.564 Z M146.206,437.724 C146.494,436.212 146.494,434.664 146.386,433.08 C146.314,432.324 146.278,431.532 146.278,430.74 L146.218384,429.211008 C146.13544,427.17888 145.9972,425.1744 145.306,423.216 C145.126,422.676 145.126,422.136 145.162,421.56 C145.27,420.66 145.27,419.724 145.378,418.788 C145.414,418.104 144.91,417.708 144.622,417.204 C144.442,416.916 144.118,417.132 143.83,417.06 C143.434,416.952 143.038,416.916 142.678,417.24 C142.246,417.636 141.922,418.068 142.03,418.68 C142.066,419.076 141.994,419.4 141.85,419.76 C141.634,420.3 141.454,420.804 141.382,421.344 C141.126,422.944 140.528667,424.430222 140.070395,425.95437 L139.906,426.528 C139.834,426.852 139.654,427.14 139.546,427.428 C138.466,429.768 136.99,431.82 135.37,433.8 C135.19,434.052 134.902,434.232 134.65,434.412 C134.146,434.772 133.606,435.06 133.102,435.384 C132.8752,435.5136 132.70672,435.43908 132.649048,435.212928 L132.634,435.132 C132.598,434.952 132.562,434.772 132.562,434.556 C132.526,432.9 132.562,431.244 132.85,429.588 C133.246,427.356 133.642,425.124 134.29,422.964 C134.83,421.2 135.262,419.4 135.982,417.708 C136.594,416.376 135.874,414.792 134.506,414.288 L133.633184,413.97649 C132.89849,413.719347 132.145429,413.480571 131.374,413.352 L130.950064,414.76032 C130.73752,415.45584 130.5172,416.1384 130.258,416.808 C129.286,419.328 128.674,421.92 128.278,424.584 C127.954,426.708 127.702,428.832 127.738,431.028 C127.774,433.116 128.098,435.06 128.89,436.968 C129.07,437.436 129.538,437.688 129.682,438.192 C129.682,438.336 129.934,438.444 130.114,438.48 C130.33,438.552 130.366,438.696 130.438,438.876 C130.726,439.524 131.266,439.704 131.914,439.596 C132.454,439.488 133.03,439.524 133.498,439.2 C134.218,439.164 134.65,438.696 135.01,438.156 C135.0964,437.9544 135.22888,437.77584 135.370576,437.601888 L136.652464,436.084992 C137.23912,435.38688 137.818,434.6784 138.358,433.944 C139.114,432.972 139.798,431.928 140.554,430.884 C140.842,430.488 141.202,430.128 141.742,430.02 C141.994,429.948 142.21,430.02 142.282,430.272 C142.318,430.452 142.354,430.632 142.354,430.812 C142.453,432.66 143.0965,434.387 143.535812,436.159375 L143.65,436.644 C143.677,436.779 143.72425,436.914 143.776563,437.033812 L143.83,437.148 C144.298,438.156 144.982,438.804 146.17,438.588 C146.314,438.264 146.134,438.012 146.206,437.724 Z M150.634,408.42 L151.687,408.4065 C151.858,408.404 152.02675,408.403125 152.19325,408.404812 L152.686,408.42 C152.974,408.42 153.226,408.456 153.514,408.528 C154.666,408.852 155.206,409.572 155.17,410.796 C155.146,411.564 155.138,412.316 155.124667,413.073333 L155.098,414.216 C155.098,414.396 155.026,414.648 155.278,414.864 C155.638,414.864 155.854,414.504 156.178,414.36 C156.502,414.216 156.826,414.036 157.114,413.82 C157.51,413.496 157.978,413.388 158.446,413.172 C159.49,412.704 160.57,412.992 161.614,413.208 C161.998,413.272 162.239778,413.506667 162.415185,413.861432 L162.478,414 C163.126,415.368 163.342,416.808 163.09,418.32 C162.874,419.688 162.586,420.984 162.226,422.28 C162.046,422.856 161.794,423.36 161.362,423.792 C160.852,424.392 160.392,425.042 159.857,425.617 L159.526,425.952 C159.13,426.315 159.06675,426.7385 159.225333,427.194771 L159.274,427.32 C159.958,428.94 160.246,430.704 160.714,432.396 C161.074,433.584 161.434,434.808 161.866,435.996 C162.352,437.373 162.85825,438.72975 163.38475,440.081437 L163.918,441.432 C164.134,441.972 164.35,442.512 164.422,443.088 C164.458,443.268 164.494,443.448 164.566,443.628 C165.574,445.752 166.726,447.768 168.634,449.28 C168.994,449.568 169.426,449.892 169.858,450.108 C170.320857,450.324 170.677918,450.672245 171.042536,450.994041 L171.226,451.152 C171.6148,451.4436 171.62452,451.881 171.675064,452.254248 L171.694,452.376 C171.802,452.772 171.262,453.132 170.866,453.024 L170.609104,452.945664 C170.48296,452.90592 170.362,452.8584 170.254,452.772 C168.886,451.584 167.266,450.756 165.862,449.604 C164.242,448.308 162.766,446.832 161.614,445.104 C160.822,443.844 160.03,442.584 159.382,441.252 C158.374,439.128 157.474,436.968 156.61,434.772 C155.854,432.864 155.278,430.848 154.846,428.832 C154.738,428.364 154.522,427.896 154.378,427.428 C154.27,427.104 154.27,426.564 153.838,426.636 C153.478,426.672 153.55,427.248 153.514,427.572 L152.974,432.828 C152.938,433.044 152.974,433.296 152.902,433.512 C152.362,434.736 152.398,436.068 152.29,437.364 C152.218,438.264 152.002,439.164 151.714,439.992 L151.65346,440.231389 C151.548824,440.610851 151.370941,440.978824 150.778,440.712 C150.724,440.712 150.64975,440.73225 150.585625,440.77275 L150.526,440.82 C149.986,441.324 149.554,441.036 149.086,440.712 C148.834,440.532 148.726,440.316 148.726,440.028 C148.702,439.524 148.694,439.02 148.680667,438.505333 L148.654,437.724 C148.546,435.168 148.618,432.576 148.762,430.02 C148.906,427.356 149.23,424.728 149.482,422.064 C149.734,419.436 150.058,416.772 150.346,414.144 C150.454,413.28 150.598,412.452 150.67,411.588 C150.778,410.688 150.994,409.824 150.634,408.924 C150.562,408.78 150.634,408.6 150.634,408.42 Z M154.09,424.764 C154.846,424.476 155.566,424.44 156.25,424.44 C156.474,424.44 156.698,424.496889 156.770296,424.686519 L156.79,424.764 C156.898,425.232 157.15,425.16 157.474,425.016 C158.014,424.764 158.374,424.404 158.482,423.792 C158.554,423.504 158.698,423.216 158.806,422.928 C159.886,420.732 160.21,418.392 160.102,415.944 C160.102,415.836 160.066,415.692 160.03,415.548 C159.994,415.332 159.67,415.188 159.49,415.332 C158.698,416.016 157.726,416.52 157.114,417.492 C156.178,418.968 155.386,420.516 154.63,422.1 C154.414,422.496 154.342,422.964 154.162,423.36 C154.018,423.792 153.982,424.224 154.09,424.764 Z M192.312667,417.285333 L192.286,414.216 C192.286,413.388 192.25,412.56 192.034,411.768 C191.782,410.868 191.494,410.04 190.882,409.248 C190.378,408.618 189.818875,408.09825 189.180508,407.68875 L188.902,407.52 C188.506,407.304 188.254,406.944 187.786,406.836 C187.426,406.728 187.102,406.908 187.03,407.304 C186.994,407.484 186.994,407.7 186.994,407.916 L187.102,413.064 L187.0885,413.766 C187.084,414 187.084,414.234 187.102,414.468 C187.354,417.348 187.174,420.264 186.994,423.18 C186.814,425.232 186.418,427.32 186.094,429.372 C185.806,431.064 185.482,432.72 185.194,434.412 C184.834,436.428 184.042,438.264 183.358,440.136 C183.178,440.532 182.926,440.676 182.53,440.532 C182.098,440.388 181.738,440.208 181.306,440.064 C180.982,439.956 180.802,439.74 180.586,439.416 C179.942235,438.297882 179.457917,437.115986 179.763327,435.810285 L179.83,435.564 C180.029385,434.899385 179.922024,434.326793 179.507917,433.846225 L179.398,433.728 C179.218,433.512 179.074,433.512 178.894,433.764 C178.542,434.18 178.531333,434.738222 178.356321,435.236395 L178.282,435.42 C177.706,436.752 177.634,438.156 177.994,439.56 L178.064591,439.817391 C178.204462,440.272331 178.417692,440.626154 178.966,440.748 C179.218,440.82 179.218,441.036 179.002,441.252 L178.678,441.54 C179.002,441.576 179.29,441.612 179.578,441.54 C180.118,441.468 180.586,441.612 180.91,442.044 L181.002667,441.9385 C181.145167,441.78775 181.301167,441.687625 181.440292,441.865937 L181.486,441.936 C181.71,442.32 182.047778,442.476444 182.448765,442.557037 L182.602,442.584 C182.854,442.62 183.07,442.692 183.322,442.764 C183.79,443.016 184.366,442.944 184.798,443.34 L186.166,443.412 C186.958,443.412 187.426,442.872 188.038,442.44 C188.974,441.756 189.55,440.856 189.802,439.74 C190.378,437.22 190.954,434.736 191.494,432.216 C191.746,431.064 191.962,429.876 192.034,428.688 C192.142,426.96 192.358,425.196 192.358,423.432 C192.334,421.392 192.326,419.336 192.312667,417.285333 L192.312667,417.285333 Z M185.59,441.468 L185.554,441.396 L185.662,441.396 L185.59,441.468 Z M178.606,441.576 C178.642,441.576 178.642,441.54 178.678,441.54 C178.642,441.504 178.606,441.504 178.57,441.504 L178.606,441.576 Z M183.61,442.656 C183.538,442.692 183.43,442.728 183.322,442.728 C183.358,442.62 183.43,442.548 183.502,442.476 C183.538,442.404 183.682,442.368 183.682,442.368 C183.79,442.476 183.718,442.584 183.61,442.656 Z M210.034,424.476 C210.394,425.952 209.854,427.5 209.71,429.084 C209.602,430.308 208.99,431.46 208.378,432.54 C207.838,433.44 207.19,434.304 206.578,435.168 C206.254,435.672 205.786,435.924 205.39,436.284 C204.454,437.22 203.482,438.084 202.582,439.02 C201.7756,439.8552 200.83096,440.2296 199.84024,440.530272 L199.09,440.748 C198.04375,441.0855 197.124063,440.790188 196.241948,440.247683 L195.8905,440.0235 C195.86125,440.00325 195.833125,439.981875 195.807813,439.958812 L195.742,439.884 C194.842,438.876 194.014,437.868 193.618,436.464 C193.222,435.024 192.97,433.584 192.898,432.072 C192.826,429.912 193.186,427.896 193.798,425.916 C194.77,422.928 196.03,420.12 197.47,417.42 C197.982,416.396 198.550889,415.372 199.277802,414.47442 L199.558,414.144 C199.954,413.676 200.386,413.28 200.998,413.316 C201.25,413.316 201.502,413.244 201.754,413.136 C202.078,412.956 202.402,412.992 202.726,413.1 C203.056,413.22 203.336,413.265 203.649333,413.235 L203.842,413.208 C204.706,413.028 205.75,414.072 205.714,415.116 C205.678,415.728 205.894,415.98 206.362,416.124 C207.118,416.34 207.694,416.772 208.054,417.564 C208.126,417.744 208.234,417.888 208.342,418.032 C209.854,419.688 210.142,421.812 210.034,424.044 L210.034,424.476 Z M201.574,426.564 C200.87,426.276 200.422,425.988 200.002444,425.57358 L199.846,425.412 C199.558,425.088 199.27,425.196 199.09,425.664 C198.73,426.564 198.478,427.464 198.118,428.364 C197.434,430.056 197.146,431.856 197.11,433.728 C197.074,434.412 197.218,435.06 197.326,435.744 C197.398,436.14 197.614,436.464 197.866,436.716 C198.19,437.112 198.478,437.184 198.91,436.932 C199.27,436.716 199.666,436.464 199.99,436.176 C202.15,434.232 204.058,432 205.462,429.3 C206.542,427.284 207.154,425.088 207.298,422.712 C207.37,421.776 207.262,420.876 207.118,419.976 C207.01,419.544 206.866,419.148 206.65,418.788 C206.398,418.428 206.146,418.356 205.858,418.572 L205.449616,418.916448 C204.91048,419.3784 204.4036,419.868 204.058,420.588 C203.482,421.848 202.798,423.036 202.294,424.296 C202.006,424.98 201.394,425.52 201.574,426.564 Z M230.446,437.724 C230.734,436.212 230.734,434.664 230.626,433.08 C230.554,432.324 230.518,431.532 230.518,430.74 L230.458384,429.211008 C230.37544,427.17888 230.2372,425.1744 229.546,423.216 C229.366,422.676 229.366,422.136 229.402,421.56 C229.51,420.66 229.51,419.724 229.618,418.788 C229.654,418.104 229.15,417.708 228.862,417.204 C228.682,416.916 228.358,417.132 228.07,417.06 C227.674,416.952 227.278,416.916 226.918,417.24 C226.486,417.636 226.162,418.068 226.27,418.68 C226.306,419.076 226.234,419.4 226.09,419.76 C225.874,420.3 225.694,420.804 225.622,421.344 C225.366,422.944 224.768667,424.430222 224.310395,425.95437 L224.146,426.528 C224.074,426.852 223.894,427.14 223.786,427.428 C222.706,429.768 221.23,431.82 219.61,433.8 C219.43,434.052 219.142,434.232 218.89,434.412 C218.386,434.772 217.846,435.06 217.342,435.384 C217.1152,435.5136 216.94672,435.43908 216.889048,435.212928 L216.874,435.132 C216.838,434.952 216.802,434.772 216.802,434.556 C216.766,432.9 216.802,431.244 217.09,429.588 C217.486,427.356 217.882,425.124 218.53,422.964 C219.07,421.2 219.502,419.4 220.222,417.708 C220.834,416.376 220.114,414.792 218.746,414.288 L217.873184,413.97649 C217.13849,413.719347 216.385429,413.480571 215.614,413.352 L215.190064,414.76032 C214.97752,415.45584 214.7572,416.1384 214.498,416.808 C213.526,419.328 212.914,421.92 212.518,424.584 C212.194,426.708 211.942,428.832 211.978,431.028 C212.014,433.116 212.338,435.06 213.13,436.968 C213.31,437.436 213.778,437.688 213.922,438.192 C213.922,438.336 214.174,438.444 214.354,438.48 C214.57,438.552 214.606,438.696 214.678,438.876 C214.966,439.524 215.506,439.704 216.154,439.596 C216.694,439.488 217.27,439.524 217.738,439.2 C218.458,439.164 218.89,438.696 219.25,438.156 C219.3364,437.9544 219.46888,437.77584 219.610576,437.601888 L220.892464,436.084992 C221.47912,435.38688 222.058,434.6784 222.598,433.944 C223.354,432.972 224.038,431.928 224.794,430.884 C225.082,430.488 225.442,430.128 225.982,430.02 C226.234,429.948 226.45,430.02 226.522,430.272 C226.558,430.452 226.594,430.632 226.594,430.812 C226.693,432.66 227.3365,434.387 227.775813,436.159375 L227.89,436.644 C227.917,436.779 227.96425,436.914 228.016563,437.033812 L228.07,437.148 C228.538,438.156 229.222,438.804 230.41,438.588 C230.554,438.264 230.374,438.012 230.446,437.724 Z M234.874,408.42 L235.927,408.4065 C236.098,408.404 236.26675,408.403125 236.43325,408.404812 L236.926,408.42 C237.214,408.42 237.466,408.456 237.754,408.528 C238.906,408.852 239.446,409.572 239.41,410.796 C239.386,411.564 239.378,412.316 239.364667,413.073333 L239.338,414.216 C239.338,414.396 239.266,414.648 239.518,414.864 C239.878,414.864 240.094,414.504 240.418,414.36 C240.742,414.216 241.066,414.036 241.354,413.82 C241.75,413.496 242.218,413.388 242.686,413.172 C243.73,412.704 244.81,412.992 245.854,413.208 C246.238,413.272 246.479778,413.506667 246.655185,413.861432 L246.718,414 C247.366,415.368 247.582,416.808 247.33,418.32 C247.114,419.688 246.826,420.984 246.466,422.28 C246.286,422.856 246.034,423.36 245.602,423.792 C245.092,424.392 244.632,425.042 244.097,425.617 L243.766,425.952 C243.37,426.315 243.30675,426.7385 243.465333,427.194771 L243.514,427.32 C244.198,428.94 244.486,430.704 244.954,432.396 C245.314,433.584 245.674,434.808 246.106,435.996 C246.592,437.373 247.09825,438.72975 247.62475,440.081437 L248.158,441.432 C248.374,441.972 248.59,442.512 248.662,443.088 C248.698,443.268 248.734,443.448 248.806,443.628 C249.814,445.752 250.966,447.768 252.874,449.28 C253.234,449.568 253.666,449.892 254.098,450.108 C254.560857,450.324 254.917918,450.672245 255.282536,450.994041 L255.466,451.152 C255.8548,451.4436 255.86452,451.881 255.915064,452.254248 L255.934,452.376 C256.042,452.772 255.502,453.132 255.106,453.024 L254.849104,452.945664 C254.72296,452.90592 254.602,452.8584 254.494,452.772 C253.126,451.584 251.506,450.756 250.102,449.604 C248.482,448.308 247.006,446.832 245.854,445.104 C245.062,443.844 244.27,442.584 243.622,441.252 C242.614,439.128 241.714,436.968 240.85,434.772 C240.094,432.864 239.518,430.848 239.086,428.832 C238.978,428.364 238.762,427.896 238.618,427.428 C238.51,427.104 238.51,426.564 238.078,426.636 C237.718,426.672 237.79,427.248 237.754,427.572 L237.214,432.828 C237.178,433.044 237.214,433.296 237.142,433.512 C236.602,434.736 236.638,436.068 236.53,437.364 C236.458,438.264 236.242,439.164 235.954,439.992 L235.89346,440.231389 C235.788824,440.610851 235.610941,440.978824 235.018,440.712 C234.964,440.712 234.88975,440.73225 234.825625,440.77275 L234.766,440.82 C234.226,441.324 233.794,441.036 233.326,440.712 C233.074,440.532 232.966,440.316 232.966,440.028 C232.942,439.524 232.934,439.02 232.920667,438.505333 L232.894,437.724 C232.786,435.168 232.858,432.576 233.002,430.02 C233.146,427.356 233.47,424.728 233.722,422.064 C233.974,419.436 234.298,416.772 234.586,414.144 C234.694,413.28 234.838,412.452 234.91,411.588 C235.018,410.688 235.234,409.824 234.874,408.924 C234.802,408.78 234.874,408.6 234.874,408.42 Z M238.33,424.764 C239.086,424.476 239.806,424.44 240.49,424.44 C240.714,424.44 240.938,424.496889 241.010296,424.686519 L241.03,424.764 C241.138,425.232 241.39,425.16 241.714,425.016 C242.254,424.764 242.614,424.404 242.722,423.792 C242.794,423.504 242.938,423.216 243.046,422.928 C244.126,420.732 244.45,418.392 244.342,415.944 C244.342,415.836 244.306,415.692 244.27,415.548 C244.234,415.332 243.91,415.188 243.73,415.332 C242.938,416.016 241.966,416.52 241.354,417.492 C240.418,418.968 239.626,420.516 238.87,422.1 C238.654,422.496 238.582,422.964 238.402,423.36 C238.258,423.792 238.222,424.224 238.33,424.764 Z M272.494,414.072 C272.062,414.288 271.846,414.684 271.846,415.152 C271.874,415.628 271.706,416.038667 271.494444,416.434815 L271.306,416.772 C270.586,418.032 269.902,419.328 269.182,420.624 C268.462,421.956 267.958,423.36 267.31,424.728 C267.238,424.908 267.166,425.088 267.202,425.232 C267.274,426.168 266.806,426.888 266.59,427.716 C266.266,428.688 265.762,429.588 265.474,430.56 C265.09,432.032 264.506889,433.418667 264.230346,434.922272 L264.142,435.492 C264.106,435.78 264.034,436.104 263.926,436.392 C263.782,436.896 263.818,437.328 264.142,437.76 C264.25,437.904 264.322,438.084 264.358,438.264 C264.43,438.624 264.394,438.948 264.106,439.236 C263.791,439.551 263.420875,439.700625 263.019742,439.805461 L262.846,439.848 C262.342,439.992 261.946,439.956 261.514,439.668 C261.19,439.452 260.794,439.38 260.434,439.236 C259.786,439.02 259.354,438.588 259.066,437.94 C258.586,436.788 258.305111,435.579111 258.096914,434.363901 L258.022,433.908 C257.698,431.928 257.374,429.948 257.014,427.968 C256.906,427.392 256.69,426.852 256.546,426.276 C256.51,426.204 256.402,426.132 256.33,426.132 C256.294,426.132 256.186,426.204 256.186,426.276 L255.875536,428.016672 C255.72088,428.89104 255.574,429.768 255.466,430.632 C255.322,432.036 255.07,433.404 254.638,434.7 C254.494,435.132 254.422,435.6 254.314,436.032 C254.278,436.176 254.278,436.392 254.17,436.536 C253.45,437.472 253.162,438.66 252.658,439.74 C252.37,440.352 252.262,441.108 252.01,441.756 C251.902,441.972 251.722,442.08 251.542,442.224 C251.452,442.284 251.337,442.294 251.2595,442.233167 L251.218,442.188 C250.858,441.792 250.462,441.468 250.318,440.928 L250.129918,440.132012 C249.975633,439.471837 249.839714,438.814286 249.814,438.12 C249.742,435.672 249.706,433.188 250.066,430.74 C250.39,428.328 250.606,425.916 250.858,423.504 L251.11,422.064 C251.1964,421.5888 251.24392,421.1136 251.283664,420.630624 L251.362,419.652 C251.434,418.464 251.686,417.276 251.938,416.088 C252.082,415.404 252.478,414.972 253.198,414.972 C253.918,415.008 254.638,414.792 255.358,415.008 C255.952,415.239 256.425,415.50025 256.721542,416.069042 L256.798,416.232 C257.014,416.7 257.266,417.168 257.734,417.492 C258.382,417.96 258.706,418.752 258.994,419.472 C259.6852,421.0848 260.35336,422.6976 260.980048,424.328832 L261.442,425.556 C261.757,426.3435 261.96175,427.186125 262.032133,428.059758 L262.066,428.6545 C262.081,429.022 262.096,429.402 262.486,429.732 C263.134,428.472 264.07,427.5 264.826,426.348 C264.97,426.132 265.078,425.88 265.186,425.628 C266.266,422.64 267.994,420.012 269.434,417.204 C269.47,417.096 269.578,416.952 269.65,416.88 C270.442,416.16 271.018,415.296 271.45,414.288 C271.666,413.856 272.098,413.928 272.494,414.072 Z M267.598,434.664 C267.634,433.476 267.814,432.36 268.03,431.208 L268.354,429.3 C268.426,428.976 268.498,428.688 268.642,428.4 C268.93,427.752 269.182,427.068 269.074,426.312 C269.038,426.06 269.146,425.772 269.182,425.52 C269.65,423.468 270.262,421.416 270.874,419.4 C271.054,418.824 271.234,418.248 271.378,417.636 C271.594,416.844 271.954,416.052 272.242,415.26 C272.35,414.972 272.53,414.864 272.854,414.828 C273.034,414.828 273.214,414.756 273.394,414.72 C274.15,414.504 274.87,414.324 275.518,414.936 C275.6755,415.0935 275.888125,415.085625 276.083523,415.008844 L276.166,414.972 C276.31,414.9 276.454,414.864 276.598,414.792 C279.01,413.604 281.566,412.776 284.05,411.696 C284.986,411.3 285.994,411.048 287.002,410.724 C287.542,410.544 288.082,410.364 288.658,410.22 C288.946,410.112 289.234,410.076 289.558,410.04 C289.81,410.04 290.098,410.4 289.954,410.616 C289.666,410.976 289.774,411.444 289.522,411.804 C289.306,412.128 289.018,412.38 288.874,412.812 C288.802,413.1 288.478,413.244 288.154,413.352 C287.814571,413.475429 287.501592,413.678204 287.260402,413.937656 L287.146,414.072 C286.642,414.72 285.958,415.044 285.238,415.296 C284.554,415.584 283.906,415.944 283.294,416.268 C281.422,417.204 279.622,418.212 277.678,418.932 C277.462,419.04 277.246,419.148 277.03,419.184 C276.13,419.184 275.914,419.76 275.698,420.48 C275.374,421.668 274.942,422.82 274.582,423.972 L273.97,426.096 C273.934,426.312 274.114,426.456 274.33,426.42 L277.102,425.664 C277.822,425.484 278.542,425.448 279.298,425.448 C279.586,425.484 279.694,425.628 279.658,425.916 C279.627143,426.132 279.543388,426.321551 279.588099,426.507324 L279.622,426.6 C279.658,426.672 279.658,426.78 279.622,426.816 C279.154,427.176 279.01,427.86 278.398,428.112 C278.038,428.256 277.714,428.472 277.642,428.94 C277.57,429.156 277.354,429.264 277.138,429.408 C276.418,429.84 275.662,430.2 274.834,430.38 C274.366,430.488 273.862,430.524 273.358,430.38 C272.818,430.2 272.782,430.236 272.638,430.884 C272.206,432.288 272.062,433.728 271.774,435.132 C271.702,435.384 271.738,435.6 271.738,435.852 C271.738,436.032 271.99,436.14 272.17,436.032 C272.458,435.852 272.746,435.672 273.034,435.456 C275.014,433.98 277.138,432.756 279.406,431.784 C280.018,431.532 280.63,431.28 281.278,431.244 C281.746,431.208 281.818,431.388 281.962,431.82 C282.178,432.396 281.854,432.9 281.818,433.476 C281.782,433.872 281.422,434.196 281.134,434.484 L280.834188,434.751188 C280.5355,435.0195 280.252,435.303 280.09,435.708 C280.018,435.816 279.874,435.888 279.73,435.996 L277.246,437.6565 C276.418,438.21 275.59,438.768 274.762,439.344 C274.042,439.848 273.25,440.064 272.458,440.316 C272.242,440.388 272.062,440.352 271.882,440.352 C270.802,440.28 269.866,439.812 269.11,439.056 C268.138,438.048 267.598,436.788 267.598,435.348 L267.598,434.664 Z M296.326,425.268 C295.642,425.772 295.246,426.132 294.994,426.6 C294.346,427.932 293.338,428.904 292.438,430.02 C291.862,430.74 291.214,431.424 290.602,432.108 C289.882,432.864 289.09,433.44 288.262,434.016 C286.786,434.988 284.662,433.764 284.194,432.396 C284.05,431.964 283.978,431.496 283.906,431.064 C283.51,427.86 283.474,424.692 284.05,421.524 C284.194,420.696 284.302,419.832 284.41,418.968 C284.446,418.716 284.59,418.572 284.842,418.536 C285.346,418.536 285.886,418.5 286.39,418.5 C286.822,418.5 288.118,419.76 288.19,420.228 C288.262,421.2 288.442,422.136 288.19,423.072 C287.902,424.224 287.722,425.412 287.65,426.6 C287.65,426.816 287.326,427.14 287.722,427.284 C287.9812,427.3812 288.0946,427.12848 288.245908,426.945744 L288.298,426.888 C289.45,425.664 290.71,424.548 291.754,423.216 C292.978,421.632 294.382,420.228 295.426,418.5 C295.858,417.816 296.434,417.24 297.01,416.736 C297.514,416.268 298.126,416.34 298.702,416.556 C299.89,417.024 300.466,417.96 300.574,419.22 C300.61,419.868 300.61,420.516 300.61,421.164 L300.574864,423.8856 C300.55672,425.2464 300.5308,426.6072 300.466,427.968 L300.402064,429.9552 C300.31336,432.6048 300.1924,435.2544 299.818,437.904 L299.4265,440.4465 C299.296,441.297 299.17,442.152 299.062,443.016 C298.918,444.132 298.738,445.248 298.486,446.364 C298.378,446.94 298.09,447.372 297.694,447.696 C297.082,448.164 296.398,448.596 295.786,449.028 C295.606,449.136 295.462,449.1 295.318,448.956 C294.85,448.488 294.49,447.912 294.454,447.192 C294.382,446.4 294.382,445.644 294.526,444.888 C295.282,441.18 295.498,437.4 295.786,433.62 C295.93,431.928 296.074,430.272 296.182,428.58 C296.254,427.572 296.254,426.6 296.326,425.268 Z M319.006,409.68 C318.979,409.626 318.952,409.572 318.925,409.548375 L318.898,409.536 C318.466,409.356 318.142,408.96 317.638,408.924 L317.281938,408.92175 C316.9225,408.92175 316.558,408.942 316.234,409.104 C316.0135,409.167 315.930813,409.257562 315.937703,409.448039 L315.946,409.536 C315.946,409.644 316.018,409.752 315.982,409.86 C315.802,410.436 315.802,411.048 315.694,411.624 C315.55,412.38 315.262,413.136 315.19,413.892 C315.19,413.928 315.154,413.928 315.154,413.928 L315.154,414 C315.19,414.144 315.082,414.216 315.01,414.36 C314.938,414.468 315.154,414.612 315.01,414.72 C315.01,414.792 314.974,414.828 314.902,414.792 L314.902,414.828 C314.8156,414.9144 314.77528,415.02384 314.78104,415.137888 L314.794,415.224 C314.866,415.656 314.794,416.016 314.578,416.376 C314.578,416.4912 314.62408,416.62944 314.605648,416.753856 L314.578,416.844 C314.434,417.204 314.506,417.6 314.29,417.924 C314.182,418.068 314.11,418.212 314.146,418.428 L314.1415,418.518 C314.137,418.554 314.128,418.59 314.11,418.608 C313.858,418.752 314.002,419.04 313.894,419.256 C313.714,419.508 313.606,419.832 313.642,420.156 C313.642,420.264 313.642,420.336 313.57,420.372 C313.462,420.408 313.426,420.516 313.426,420.624 C313.462,420.876 313.282,421.056 313.21,421.272 L313.098,421.586667 C313.026,421.792 312.97,421.992 312.994,422.208 C313.066,422.136 313.102,422.064 313.174,421.992 L313.246,422.064 C313.282,422.172 313.246,422.208 313.138,422.208 L313.066,422.1945 C313.039,422.19 313.012,422.19 312.994,422.208 C312.85,422.208 312.814,422.316 312.742,422.424 L312.706,422.388 C312.706,422.424 312.742,422.424 312.742,422.46 C312.802,422.61 312.712,422.71 312.6595,422.843333 L312.5755,423.1125 C312.553,423.18 312.526,423.252 312.49,423.324 C312.454,423.468 312.49,423.612 312.382,423.756 C312.328,423.81 312.292,423.882 312.2605,423.9585 L312.166,424.188 C312.058,424.44 312.022,424.62 312.274,424.8 C312.31,424.836 312.274,424.944 312.274,424.98 L311.986,424.98 C311.914,424.98 311.842,425.016 311.806,425.124 C311.77,425.268 311.698,425.412 311.662,425.556 C311.626,425.664 311.662,425.772 311.59,425.808 C311.4325,425.9655 311.412813,426.123 311.482703,426.304617 L311.518,426.384 C311.59,426.528 311.554,426.636 311.374,426.564 C311.347,426.564 311.29975,426.564 311.277813,426.579187 L311.266,426.6 C311.122,426.852 311.014,427.14 310.906,427.428 C310.906,427.5 310.906,427.572 310.942,427.644 C311.014,427.824 310.906,427.824 310.798,427.86 C310.546,428.004 310.546,428.112 310.726,428.436 C310.798,428.58 310.798,428.652 310.618,428.616 C310.546,428.616 310.474,428.652 310.474,428.724 C310.402,428.94 310.222,429.12 310.078,429.3 C309.826,429.624 309.718,429.984 309.79,430.38 C309.826,430.632 309.646,430.452 309.574,430.524 L309.61,430.524 C309.466,430.776 309.322,431.028 309.394,431.316 C309.466,431.496 309.214,431.712 309.43,431.892 L309.322,432.036 L309.149816,432.139592 C308.882331,432.311006 308.870615,432.407077 308.962,432.864 C308.962,432.936 308.89,433.008 308.818,432.936 L308.742222,432.909341 C308.702338,432.897166 308.682606,432.901784 308.676309,432.956781 L308.674,433.008 C308.638,433.224 308.818,433.404 308.746,433.62 C308.674,433.62 308.602,433.584 308.53,433.584 C308.458,433.584 308.422,433.62 308.386,433.656 L308.38024,433.857024 C308.38024,433.9512 308.3932,434.0376 308.458,434.124 C308.53,434.232 308.494,434.376 308.386,434.448 C308.242,434.592 308.206,434.736 308.206,434.952 C308.242,435.096 308.278,435.132 308.458,435.132 C308.53,435.096 308.602,435.204 308.53,435.276 L308.476,435.3705 C308.458,435.402 308.44,435.438 308.422,435.492 C308.422,435.584571 308.369102,435.624245 308.285977,435.565679 L308.242,435.528 C308.17,435.456 308.098,435.42 308.026,435.384 C308.026,435.456 307.99,435.492 308.026,435.564 C308.062,435.744 308.062,436.356 307.99,436.536 C307.9324,436.7088 307.89784,436.90464 307.79416,437.105088 L307.702,437.256 C307.594,437.4 307.558,437.616 307.738,437.868 C307.918,438.048 308.026,438.3 308.314,438.336 C308.494,438.588 308.782,438.444 309.07,438.588 C309.07,438.3 309.142,438.12 309.286,437.94 C309.586,437.52 309.761,437.025 309.956833,436.538333 L310.078,436.248 C310.33,435.672 310.546,435.132 310.762,434.556 C310.87,434.304 310.906,434.016 311.014,433.764 C311.338,432.972 311.662,432.18 311.95,431.388 C312.166,430.776 312.418,430.164 312.67,429.552 L313.318,428.184 C313.462,427.86 313.606,427.5 313.714,427.176 C313.858,426.564 314.182,426.024 314.434,425.448 C314.542,425.16 314.578,424.872 314.686,424.584 C314.83,424.152 315.01,423.72 315.19,423.288 C315.226,423.144 315.334,423 315.334,422.784 C315.334,422.676 315.442,422.532 315.586,422.46 L315.586,422.496 C315.658,422.028 315.766,421.56 315.946,421.164 C316.126,420.732 316.27,420.264 316.414,419.832 L316.480667,419.608 C316.526,419.456 316.582,419.304 316.702,419.184 C316.774,419.148 316.774,419.04 316.81,418.968 C316.954,418.392 317.134,417.816 317.278,417.24 C317.458,416.628 317.602,416.016 317.782,415.404 L318.214,413.64 C318.25,413.46 318.286,413.244 318.43,413.1 C318.574,412.992 318.574,412.812 318.61,412.668 C318.682,412.38 318.754,412.108 318.815333,411.830667 L318.898,411.408 C318.9556,411.1776 318.96712,410.92416 319.02472,410.702976 L319.078,410.544 C319.222,410.22 319.114,409.932 319.006,409.68 Z M314.686,418.932 C314.686,418.968 314.65,419.004 314.578,418.968 C314.542,418.932 314.542,418.896 314.578,418.86 C314.614,418.86 314.65,418.824 314.686,418.824 L314.686,418.932 Z M314.506,419.688 L314.434,419.724 C314.362,419.688 314.398,419.616 314.434,419.58 L314.506,419.58 C314.542,419.616 314.506,419.652 314.506,419.688 Z M313.894,421.632 L313.8265,421.6455 C313.804,421.65 313.786,421.65 313.786,421.632 C313.75,421.632 313.714,421.596 313.714,421.56 C313.75,421.38 313.894,421.272 314.038,421.164 C313.966,421.344 313.93,421.488 313.894,421.632 Z M313.75,422.1 L313.6915,422.1675 C313.669,422.19 313.642,422.208 313.606,422.208 C313.606,422.136 313.57,422.1 313.606,422.028 C313.606,421.956 313.642,421.92 313.714,421.956 C313.786,421.956 313.75,422.028 313.75,422.1 Z M313.462,422.712 C313.462,422.784 313.426,422.784 313.39,422.748 L313.354,422.676 C313.39,422.64 313.426,422.64 313.462,422.64 L313.462,422.712 Z M312.958,424.368 C312.958,424.404 312.922,424.44 312.85,424.404 C312.85,424.368 312.814,424.332 312.814,424.296 L313.066,423.432 C313.21,423.864 312.922,424.08 312.958,424.368 Z M312.562,425.304 C312.526,425.34 312.454,425.34 312.418,425.304 C312.382,425.268 312.382,425.232 312.382,425.196 C312.49,425.016 312.634,424.836 312.778,424.62 C312.778,424.656 312.778,424.656 312.814,424.692 C312.742,424.908 312.67,425.088 312.562,425.304 Z M309.286,433.44 C309.25,433.476 309.214,433.512 309.178,433.476 C309.142,433.476 309.106,433.44 309.106,433.404 L309.131313,433.215563 C309.16,433.02825 309.214,432.846 309.43,432.684 C309.43,433.008 309.358,433.224 309.286,433.44 Z M306.334,443.448 C306.694,443.592 307.018,443.808 307.27,444.132 C307.522,444.42 307.63,444.744 307.558,445.14 C307.5004,445.3992 307.41976,445.6584 307.297648,445.899168 L307.198,446.076 C307.138,446.196 307.028,446.316 307.013833,446.477667 L307.018,446.58 C307.054,446.796 306.91,446.904 306.766,447.012 C306.478,447.3 306.154,447.444 305.722,447.3 C305.11,447.372 304.642,447.048 304.138,446.832 C303.922,446.724 303.85,446.544 303.85,446.328 C303.886,446.04 303.922,445.752 303.994,445.5 L304.2235,444.852 C304.3,444.636 304.372,444.42 304.426,444.204 C304.57,443.808 304.786,443.484 305.146,443.304 C305.542,443.124 305.974,443.268 306.334,443.448 Z" id="Welcometoourjourney!"></path>
        </g>
    </g>
</svg>