<?xml version="1.0" encoding="utf-8"?>
<!-- Generator: Adobe Illustrator 23.1.1, SVG Export Plug-In . SVG Version: 6.00 Build 0)  -->
<svg version="1.1" id="图层_1" xmlns="http://www.w3.org/2000/svg" xmlns:xlink="http://www.w3.org/1999/xlink" x="0px" y="0px"
	 viewBox="0 0 434.4 227.8" style="enable-background:new 0 0 434.4 227.8;" xml:space="preserve">
<style type="text/css">
	.st0{fill:#FFFFFF;}
</style>
<title>LOGO</title>
<path class="st0" d="M211.9,227.8c-23.1,0-46-2.6-63.1-7.8c-13.5-4.1-28.9-22.5-37.8-23.9c-0.1,0-0.3,0-0.4,0c-2.9,0-8.6,4-15.9,8.1
	s-16.1,8.1-25.2,8.1c-1.5,0-2.9-0.1-4.4-0.3C25.9,206-8.4,141.5,1.8,90.8c4.5-22.3,21.1-54.4,50.9-54.4c2.4,0,4.8,0.2,7.2,0.6
	c10,1.7,20.2,10.5,32.1,10.5c1.9,0,3.8-0.2,5.7-0.7c12.1-3.1,21.5-21.8,36-27.7c17.2-7.2,35.2-12.6,53.5-16.3L220.3,0l25,1.6
	c15.7,2.6,30.1,6,43.6,10.9L310.9,24c5.5,3.9,9.5,11.8,17.4,13c0.5,0.1,1.1,0.1,1.6,0.1c5,0,10.2-3.2,13.5-4.5
	c11-4.2,22.9-8.1,34.4-8.1c8.3-0.2,16.4,2.3,23.1,7c48.9,34.4,39.8,117.6,0.6,154.3c-5.3,4.9-10.6,11.4-18,14.1
	c-7.4,2.5-15.2,3.8-23,3.8c-4,0.1-8-0.5-11.9-1.7c-8.4-3-14.8-12.1-25.2-12.1c-0.9,0-1.8,0.1-2.7,0.2c-12,9.4-20.3,20.3-36,26.6
	C266.5,224.3,239.1,227.9,211.9,227.8L211.9,227.8z M109.3,188c15.4,3.2,25.1,19.8,43.6,25c16,4.5,37,6.7,58.3,6.7
	c27.5,0,55.4-3.7,73.6-11.1l20.3-11.4l16.3-15.2c0.9-0.2,1.9-0.3,2.8-0.3c7.6,0,13.4,6.8,18.7,9.5c5.1,2.7,12.4,3.9,19.9,3.9
	c7.1,0.1,14.1-1.1,20.8-3.4c45.6-17,58.9-125,15.1-153.8c-6.1-3.9-13.2-5.9-20.4-5.7c-12,0-24.3,4.5-34.8,8.5
	c-3.3,1.2-8.5,4.5-13.5,4.5c-0.6,0-1.1,0-1.6-0.1c-8.3-1.4-11.8-9-17.4-13l-22.1-11.4c-13.5-4.9-27.9-8.2-43.6-10.9l-25-1.6
	l-33.1,2.7c-18.3,3.7-36.2,9.2-53.5,16.3c-14.8,6-22.8,24.3-36,27.7c-1.7,0.4-3.5,0.7-5.3,0.7c-10.4,0-19.4-7.3-26.7-9.4
	c-3.5-1-7.2-1.5-10.8-1.5c-15.1,0-28.5,8.3-33.9,16.7c-28,43.1-3,124.9,34.3,140.2c4.3,1.7,8.9,2.6,13.5,2.6
	C85,204.3,100.5,194.3,109.3,188L109.3,188z M267.1,186.6l0.7-1.5c-1.5,0.4-3,0.5-4.5,0.5c-1.9,0-3.8-0.3-5.6-0.9
	c2.2-10.1,3.3-35.6,8.3-44.6l-0.7-0.8l-13.7-1.1v0.4c0.9,1.3,1,0.1,0.4,1.5c-3.7,10-16.7,14.9-26.7,17.9
	c-13.5,4-30.9,10.4-47.4,10.4c-8.5,0-16.7-1.7-24.1-6.2l0.4-0.8c1.1-0.2,2.2-0.2,3.3-0.2c4.7,0,11.7,0.8,11.9,1.4
	c3.3-2.5,17.6-2,21.3-2.7c0.2-1.7,6.2-1,5.8-2.7c0.5,0.1,1,0.2,1.6,0.2c7.2,0,27.3-7.3,32.4-11.2c0.2,0.2,0.4,0.4,0.6,0.7
	c0.3-0.2,0.5-0.2,0.8-0.3c0.8-2.1,6.9-4.4,9.4-8l-0.7-1.5c-0.8,0.2-1.7,0.3-2.5,0.3c-4.5,0-9.8-2.5-12.6-3.4c-0.2-1.6-0.5-3.3-0.7-5
	c-1.9,0.2-4.2,0.3-6.7,0.3c-9.3,0-21.4-1.3-26.9-3.3c-0.2-0.1-0.3-0.1-0.5-0.1c-0.6,0-1.1,0.1-1.7,0.2c-0.7,0.1-1.4,0.2-2.1,0.2
	c-0.3,0-0.5,0-0.8,0l-20.2-3.8c-6.4-1.9-15.6-2.3-15.9-11.4c14.5-19.9,47.1-26.3,65.4-33.2c0.6-0.2,1.3-0.3,1.9-0.3
	c4.1,0,11,2.5,14,3v0.4h-0.7c-1.9,2.1-22.9,4.2-29.3,8.8l0.4-1.1c-11.4,5.9-33,12.1-40.8,23.3v0.8c16.2,11.2,33.8,5.4,49.5,9.9
	c1.3,0.4,2.6,0.5,3.9,0.5c1.1,0,2.2-0.1,3.3-0.2c1.1-0.1,2.1-0.2,3.2-0.2c1.8,0,3.5,0.4,5.2,1.1c0.9-7.7,5.8-16,9-23.3
	c-0.7-4.4,4.3-11.4,5.8-15.3c4-10.3,7.3-21.7,12.6-32.4c0.8-0.1,1.7-0.2,2.5-0.2h1h1c0.8,0,1.6-0.1,2.3-0.2c4,3.5-1.2,10.2-3.2,16
	c-3.4,10-7.2,24.1-11.6,34c-2.8,6.4-7.2,13.6-8.3,22.5h0.7l10.1,3.1c1.5,0.9,2.8,2.8,4.7,3.4c1.4,0.4,2.9,0.7,4.4,0.7
	c0.9,0,1.9-0.1,2.8-0.2c0.8-0.1,1.7-0.2,2.5-0.2c1.2,0,2.5,0.3,3.6,0.8c1.7-0.9,1.8-0.8,2.9-2.3c-0.9-5.8,5.7-30.4,9.4-33.6
	c1.2-0.1,2.3-0.4,3.9-0.4c1.1,0,2.2,0.1,3.3,0.4c0.1,0.8,13,24.8,13.4,25.2l-1.4-0.2v1.5l0.7,0.4c0.5-1.2,0-0.5,0.7-1.1
	c-0.2,0.6-0.5,1.3-0.7,1.9h1.8l0.4,2.7l-1.1-0.8v1.5c1.6,0.5,1.6,0.3,2.5,1.5c-0.8,1.2-0.6-0.2-1.1,1.5l1.1-0.8
	c0,0.7-0.3,1.4-0.7,1.9c0.4,0.8,0.7,1.5,1.1,2.3h1.1c-0.4-1-0.6-0.6-0.4-1.5l0.7,1.1c0.5,1,0.2,0.7-0.4,1.5
	c-0.1-0.3-0.2-0.5-0.2-0.5c-0.1,0-0.3,0.3-0.5,0.8l2.9,1.5c-0.8,1.7-0.8,1.5-0.7,3.8c1.3,0.2,1.1,0.1,1.8,0.8v0.4l-1.1-0.4
	c1.5,3.4,2.5,2.6,1.8,5.7c1.2-0.3,0.5-0.3,1.4-0.4c0.9,3,0.4,6,3.6,7.2c-1.1,2.2,0,1.9-0.4,4.2l2.2,1.1l-2.2,1.1
	c2.3,0.5,3.8,3.9,3.6,4.6l-0.7-0.4c0.6,2,1.4,1.7,2.2,3.4l-1.1-0.8c0.8,1.5,1.7,3.1,2.5,4.6c-3.8,4.5-3,6.2-5.2,6.2
	c-2.3-0.3-4.5-0.7-6.8-1.3c-4.4-10.2-4.8-17.8-8.7-23.6c-2.7-4.2-1.1-8.8-4.3-12.2c-0.8,0.3-1.7,0.4-2.5,0.4
	c-1.7-0.1-3.4-0.3-5.1-0.7c-1.7-0.4-3.4-0.6-5.1-0.7c-1.2-0.1-2.4,0.3-3.5,0.9h-0.8c0.6,2.1,0.1,4.2-0.5,6.5l0,0
	c-0.7,2.7-1.6,5.7-1,9.5h-0.2c-0.2,0-0.4,0-0.6,0h-0.2c-0.1,0-0.2,0.1-0.8,0.5c2.3,2.2-2.1,13.8-2.5,15.6c-0.4,1.5,1.2,2.7,0.7,4.6
	v2.3h-0.4l-1.1,0.8c0.9,1.7,1.2,1.9-0.7,2.3c0.2,1.1-0.1,2.2-0.7,3L267.1,186.6L267.1,186.6z M312.6,162.2l1.1,1.1L312.6,162.2z
	 M179.7,160.7L179.7,160.7z M290.6,133.6l0.4,0.8l0.4-0.8H290.6z M282.5,133c2.9,0,6.2,0.4,7.8,1.3c0-6.7-4.7-16.9-8-21.7l-1.1,1.1
	c0.3,0.4,0.5,0.5,0.7,0.5c0.1,0,0.2,0,0.2-0.1c0,0,0.1-0.1,0.1-0.1c0,0,0.2,0.2,0.4,0.8c-1.6,1.3-3.7,15.9-4.7,18.7
	C279.4,133.2,280.9,133,282.5,133L282.5,133z M282.3,111v0.8C282.6,111.1,282.6,111.7,282.3,111z M259.9,53L259.9,53z M316.6,177.7
	c-0.1-0.1-0.2-0.2-0.4-0.3h0.7C316.8,177.5,316.7,177.6,316.6,177.7z M49.6,163.2c-4.9,0.1-9.8-0.6-14.4-2.2
	c0.5-7.1,3.2-30.6,1.1-35.5c-0.6,0.2-1.2,0.3-1.8,0.3c-2.3,0-4.6-0.9-6.2-2.6l1.8-3.4c0.8-0.1,1.7-0.2,2.6-0.2H34h1.3
	c0.8,0,1.7-0.1,2.5-0.2c-1.9-6.8,2.9-36.3,5.8-40.8c0.5,0.3,1,0.6,1.6,0.7c0.5,0,0.6-0.6,1.7-1.8c0,0,5.2,0.4,7.2,0.4
	c0.2,0,0.5,0,0.7,0c1.6-0.3,3.2-0.4,4.9-0.4c1.3,0,2.7,0.1,4,0.1c1.3,0,2.8,0.1,4.3,0.1c2.6,0,5.2-0.2,7.8-0.6l4.7-1.1l1,0.2
	l0.1,0.2l-0.1-0.2c1.3,0.2,2.7,0.3,4,0.2c4-0.1,8-0.5,11.9-1c4.4-0.6,8.8-0.9,13.2-1c4.6-0.1,9.2,0.6,13.6,2.1v0.8
	c-1.5,0.2-1.4,0.1-2.2,0.8c1,1.2,0.7,0.1,0.7,1.9c-9,1.7-20,0.2-29.6,3.1c-0.7,0.2-1.5,0.2-2.2,0.2c-2.3,0-4.6-0.3-6.8-1h-0.1
	c-1.4,0-12.9,1.5-12.9,1.5c-1.2,0.3-2.4,0.4-3.7,0.4c-1.3,0-2.6-0.1-4-0.2s-2.7-0.2-4.1-0.2c-2.6-0.1-5.2,0.5-7.4,1.9L50.7,87
	c1.3,2.4-1,22.6-2.5,25.2c1.2,0.5,0,5.8,0.7,8.8c1.2-0.1,6.1-0.3,11.6-0.3c8.1,0,17.5,0.2,18.4,1c0.9-0.7,4.2-1,7.8-1
	c5.9,0,12.8,0.6,12.8,0.6c1.5,0.4,3.1,0.7,4.7,0.6c1.4,0,2.9-0.1,4.3-0.3l0,0l0.8-0.1c1.7-0.2,3.4-0.4,5.1-0.4
	c2.8,0,5.5,0.7,7.9,2.1l-0.7,1.1c-0.9,1.1-0.4,2.3-1.8,3.4c-2.4,0.9-5,1.4-7.6,1.4c-2,0.1-3.9-0.3-5.7-1c-0.1,0-7.4,0.8-12.7,0.8
	c-2.7,0-4.9-0.2-5.3-0.8c-0.4-0.1-0.9-0.1-1.4-0.1c-1.3,0-2.5,0.2-3.8,0.5c-1.3,0.3-2.6,0.4-3.9,0.5c-0.5,0-1,0-1.4-0.1l-29.6-1.5
	l-0.4,0.8c0,6.9-0.1,16.1-0.6,23.9l-0.9-0.6l0.4,1.1l0.5-0.3c0,0.9-0.1,1.7-0.2,2.6l1.8,0.4c10-2.8,25.9-1.4,36.5-6.5
	c0.5-0.2,1-0.3,1.6-0.3c0.5,0,1,0,1.5,0.1s1.1,0.1,1.6,0.1c1.2,0.1,2.3-0.3,3.3-1c0.8-0.7,1.9-1,2.9-1c1.1,0.1,2.2,0.2,3.3,0.6
	c1.1,0.3,2.2,0.5,3.4,0.6c1.1,0,2.1-0.3,3-0.9c2.9,1.5,6.1,2.3,9.4,2.3v1.9c-1.7,0.3-1.7,1.2-2.2,3.4c-1.2-0.1-2.4-0.1-3.7-0.1
	c-9.2,0-19.4,2.2-29.7,4.4S59.2,163.2,49.6,163.2L49.6,163.2z M47.8,119.4c0,1.2-0.3,0.5,0.4,1.5L47.8,119.4z M115.4,153.4l-0.7-1.1
	C115.7,153,115,152.4,115.4,153.4z M47.2,152.4c0-0.1,0-0.2,0-0.2l0.2,0.1L47.2,152.4L47.2,152.4z M218,150.8
	c-5.2-1.3-10.6-1.9-16-1.8c-3,0-6,0.1-9,0.2s-5.8,0.2-8.6,0.2c-2.9,0-5.9-0.2-8.8-0.6c-8.1-1.4-19.7-0.7-27.1-4.2l-8.3-0.4
	c-6.3-1.9-12.9-3.2-19.5-3.9l0.7-3.1c-0.9-7.8,2.2-14.9,4.7-22.9c3.1-10.3,7.5-33.4,13.4-41.2c0.9-1.2,2.5-17.8,3.6-21.4
	s2.9-7.9,3.2-10.7c2.5,0.2,6.4,0,8,1.9c-0.9,4.5-0.6,15.1-4,19.1c0.7,1.2-0.4,9.3-0.7,9.9c-7.3,16.1-18.1,49.2-17,64.1h1.1
	c8.8,2.3,18.1,2.3,24.2,3.8c1,0.2,2,0.3,3,0.3c1.2,0,2.4-0.1,3.6-0.2c1.1-0.1,2.2-0.2,3.3-0.2c1.7,0,3.2,0.4,4.2,1.7
	c0,0,11,0.3,11.2,0.4c0.7,0.3,1.5,0.4,2.2,0.4c1.5-0.1,2.9-0.2,4.4-0.5c1.4-0.3,2.7-0.4,4.1-0.5c0.7-0.1,1.4,0.1,1.9,0.6
	c4.5,1.2,22.4-1.5,24.2,5h-2.5l1.5,1.9L218,150.8L218,150.8z M276.1,147.8L276.1,147.8z M321.1,142.1c-2,0-4.1-0.4-4.5-1.1
	c-1.6-2.1-15.3-25.6-16.3-32c-1.2,0.3-0.5,0.3-1.4,0.4c-0.6-2.9-1.9-3.4-2.5-4.6c-1.4-2.9-0.2-5.3-1.8-8.8l2.9-3.4l7.2,1.1
	c2.4,1.1,3.8,4.2,5.8,5.7c7.4,5.7,16,9.4,24.9,13.4v-0.8c1.5-4.8-9-24-4.3-30.5c-11-0.6-17.5-2.5-28.5-3.4v-1.1
	c-0.8-6.3,12-6.1,18.1-8.4c0.2,0.1,0.5,0.2,0.7,0.4l-0.4,0.8c-2.6,0.4-3.8,0.9-5.1,2.7l2.2,1.1l0.7-1.5c0.8,0.7,17,2.2,26.3,2.2
	c1.8,0,3.7-0.1,5.5-0.3l-0.7,1.1c0.6-0.2,1.2-0.3,1.9-0.3c0.5,0,1,0.1,1.6,0.2c0.5,0.1,1,0.2,1.5,0.2c0.6,0,1.3-0.1,1.9-0.4
	c-0.5-3.6,0.1-7.8,1.5-12.6c2.3,0.5,5.4-0.3,7.6,1.9c-1.6,1.3,1.3,1.8,1.5,3.8h-1.5c1.6,3.7,0.5,5.3,2.5,8.8
	c0.7-0.1,1.4-0.1,2.1-0.1c11,0,35.5,6.8,39.1,17.3L408,94l1.8,2.7l-1.5-0.4c4.4,17-17.6,30.5-30,37.4l0.4-1.5
	c-5.9,3.9-11.5,6-17.5,6c-3,0-6-0.5-8.9-1.4c-0.9-7.4-0.2-30.9,3.2-35.5c0,0,0.1-16.1,0.7-17.9l-1.1-1.9c-1.9,0.4-3.9,0.6-5.9,0.6
	c-3.5,0-7.3-0.5-8.9-1.3c0.1,0.5,0.2,1,0.4,1.5c0.1,2.8,2,16.2,4.7,19.1l-0.4,1.1c-0.5-0.4-0.4-0.6-0.5-0.6s-0.1,0.1-0.6,0.2
	c0.4,0.9,0.9,1.9,1.4,2.9l-0.3-0.2v1.1h0.8c0.9,1.6,1.6,3.3,2.1,5l-1.4-0.4c1.7,3.3,2.6,2.5,2.5,6.5l1.4-1.5c0,2.1,0.2,1.5,1.5,3
	c-1.3,1.2-0.9,2.6-1.1,4.2c-1.2,0.1-1.5,0.4-2.9,1.1c-1.7-1.9-8.7,0.1-12.3-2.3c-7-4.5-16-7.5-23.8-11.5c0.3,1.6,0.8,3.2,1.5,4.8
	l0,0c1.4,3.2,3.2,5.7,4,9h1.1c-0.5,1.1-0.9,0.1-0.4,1.1c0.7,2.2,1.8,2.3,2.5,4.2c-0.3,0-0.5-0.1-0.8-0.2c0,0-0.1,0.1-0.3,0.6
	c2.9,0.8,4,4,6.5,5.7c-0.2,1.2,0.1,2.4,0.7,3.4c-0.7,1.5-0.6,2-1.8,2.7c-0.5,0.5-2.1,0.8-3.8,0.8L321.1,142.1z M320.6,130.6
	L320.6,130.6z M366.1,103c0.1,0.2,0.2,0.5,0.3,0.7c-0.8,7.1-1.9,13.6-2.8,15h1.4c-1.9,2.9-0.5,6.1-2.2,9.5
	c11-4.6,30.7-9.5,34.7-26.7c3.1-13.4-17.9-17.9-30-17.9h-0.4c0.6,3.4,0.1,12.2-0.8,20.1C366.3,103.5,366.2,103.3,366.1,103
	L366.1,103z M387.8,125.9L387.8,125.9z M296.4,102.3l0.7,0.4L296.4,102.3z M343,98.5l0.7,0.4L343,98.5z M407.6,92.4l0.7,1.1h0.4
	v-0.4L407.6,92.4z M314.8,72.6L314.8,72.6z M108.5,121.7L108.5,121.7z M313.3,114.7L313.3,114.7z M346.2,105.7h-0.3l-0.5-0.9
	l0.8,0.6V105.7L346.2,105.7z M366.5,103.8L366.5,103.8L366.5,103.8z M342.2,82.4h-1.1v-0.8L342.2,82.4z M81.3,76.1L81,75.5
	L81.3,76.1z M368.6,73.6l-0.7-0.8L368.6,73.6z M322.7,68.6v-0.8h0.7L322.7,68.6z"/>
</svg>
