<svg id="图层_1" data-name="图层 1" xmlns="http://www.w3.org/2000/svg" viewBox="0 0 434.42 227.84"><defs><style>.cls-1{fill:#231815;}</style></defs><title>LOGO</title><path class="cls-1" d="M276.75,526.44c-23.11,0-46-2.61-63.05-7.75-13.5-4.08-28.87-22.54-37.76-23.91a2.6,2.6,0,0,0-.4,0c-2.88,0-8.64,4-15.94,8.06s-16.15,8.06-25.21,8.06a27.92,27.92,0,0,1-4.36-.33c-39.24-6-73.5-70.51-63.33-121.18C71.17,367.07,87.83,335,117.58,335a43.26,43.26,0,0,1,7.22.61c10,1.66,20.25,10.5,32.07,10.5a22.72,22.72,0,0,0,5.7-.72c12.15-3.14,21.54-21.84,36-27.72a287.32,287.32,0,0,1,53.46-16.3l33.12-2.72,25,1.63c15.7,2.65,30.12,6,43.58,10.87l22.08,11.41c5.46,3.87,9.49,11.77,17.43,13.05a11.21,11.21,0,0,0,1.64.12c5,0,10.2-3.23,13.47-4.47,11-4.16,22.87-8.1,34.39-8.1a39.14,39.14,0,0,1,23.14,7c48.89,34.39,39.84,117.61.58,154.34-5.26,4.91-10.63,11.37-18,14.13a72.4,72.4,0,0,1-23,3.83,36.56,36.56,0,0,1-11.88-1.66c-8.43-3-14.84-12.15-25.22-12.15a19.06,19.06,0,0,0-2.67.19c-11.95,9.42-20.29,20.27-36,26.63-18.25,7.39-45.71,11-72.92,11ZM174.19,486.63c15.43,3.16,25.14,19.81,43.58,25,16,4.5,37,6.73,58.27,6.73,27.48,0,55.41-3.72,73.63-11.08L370,495.87l16.27-15.22a13.32,13.32,0,0,1,2.83-.31c7.63,0,13.36,6.77,18.67,9.55,5.15,2.7,12.44,3.94,19.91,3.94a61.81,61.81,0,0,0,20.76-3.39c45.58-17,58.94-125,15.11-153.8a36.24,36.24,0,0,0-20.36-5.73c-12,0-24.33,4.48-34.84,8.45-3.26,1.23-8.5,4.48-13.46,4.48a10.19,10.19,0,0,1-1.65-.13c-8.34-1.36-11.8-9-17.43-13l-22.08-11.41c-13.46-4.91-27.88-8.21-43.58-10.87l-25-1.63-33.12,2.72a289.83,289.83,0,0,0-53.46,16.3c-14.77,6-22.78,24.32-36,27.72a21.21,21.21,0,0,1-5.28.66c-10.36,0-19.35-7.3-26.68-9.36a40.1,40.1,0,0,0-10.82-1.48c-15.1,0-28.49,8.34-33.92,16.7-28,43.11-3,124.93,34.28,140.21a35.47,35.47,0,0,0,13.54,2.6c16.19,0,31.74-9.92,40.5-16.19ZM332,485.2l.72-1.53a18.05,18.05,0,0,1-4.5.5,15.9,15.9,0,0,1-5.62-.88c2.25-10.13,3.29-35.63,8.31-44.64l-.72-.76-13.73-1.14v.38c.89,1.26,1,.11.36,1.52-3.69,10-16.67,14.94-26.73,17.94-13.47,4-30.89,10.35-47.44,10.36-8.48,0-16.72-1.67-24.1-6.17l.37-.76a18.89,18.89,0,0,1,3.26-.21c4.73,0,11.69.79,11.91,1.35,3.31-2.54,17.61-2,21.31-2.67.25-1.66,6.2-1.05,5.78-2.67a5.8,5.8,0,0,0,1.56.17c7.24,0,27.28-7.33,32.41-11.23a2.61,2.61,0,0,1,.61.66,2,2,0,0,1,.83-.28c.75-2.07,6.94-4.43,9.39-8l-.72-1.53a9.51,9.51,0,0,1-2.52.31c-4.55,0-9.81-2.51-12.65-3.36-.24-1.65-.48-3.31-.73-5-1.92.19-4.21.28-6.68.28-9.34,0-21.39-1.3-26.91-3.33a1.43,1.43,0,0,0-.48-.07,9.77,9.77,0,0,0-1.68.25,12,12,0,0,1-2.13.25,6.64,6.64,0,0,1-.77-.05l-20.23-3.82c-6.4-1.86-15.6-2.29-15.9-11.44,14.54-19.87,47.05-26.31,65.39-33.19a5.5,5.5,0,0,1,1.93-.28c4.1,0,11,2.49,14,2.95v.38h-.72c-1.89,2.15-22.88,4.2-29.27,8.77l.36-1.14c-11.36,5.88-33,12.07-40.82,23.27v.77c16.19,11.2,33.79,5.42,49.49,9.91a13.52,13.52,0,0,0,3.86.54,26.61,26.61,0,0,0,3.29-.25,28.71,28.71,0,0,1,3.23-.24,12.34,12.34,0,0,1,5.16,1.1c.86-7.66,5.81-16,9-23.27-.69-4.36,4.28-11.43,5.78-15.27,4-10.29,7.3-21.72,12.65-32.42a14.54,14.54,0,0,1,2.49-.2l1,0h1a11.3,11.3,0,0,0,2.35-.22c4,3.53-1.24,10.2-3.25,16-3.45,10-7.22,24.06-11.56,33.95-2.82,6.41-7.16,13.56-8.31,22.51h.72l10.12,3.06c1.45.85,2.78,2.84,4.69,3.43a15,15,0,0,0,4.43.66,27.1,27.1,0,0,0,2.81-.18,25.38,25.38,0,0,1,2.55-.17,7.27,7.27,0,0,1,3.58.83c1.74-.94,1.78-.8,2.89-2.29-.92-5.83,5.65-30.38,9.39-33.57,1.16-.06,2.26-.36,3.9-.36a16.77,16.77,0,0,1,3.33.36c.12.78,13,24.75,13.37,25.18L362,420v1.53l.72.38c.46-1.16,0-.46.73-1.15-.24.64-.48,1.27-.73,1.91h1.81l.36,2.67-1.08-.76v1.52c1.6.46,1.61.33,2.53,1.53-.84,1.22-.62-.21-1.09,1.53l1.09-.77a3.43,3.43,0,0,1-.73,1.91c.37.76.73,1.53,1.09,2.29h1.08c-.37-1-.56-.63-.36-1.53l.72,1.15c.48,1,.16.73-.36,1.52-.07-.31-.16-.45-.25-.45s-.31.34-.47.84l2.89,1.52c-.79,1.73-.83,1.49-.72,3.82,1.31.24,1.09.15,1.8.76v.38l-1.08-.38c1.55,3.39,2.51,2.58,1.81,5.72,1.22-.34.48-.32,1.44-.38.91,3,.4,6,3.61,7.25-1.06,2.19,0,1.85-.36,4.2l2.17,1.14-2.17,1.15c2.3.55,3.82,3.88,3.62,4.58l-.73-.39c.64,2,1.42,1.67,2.17,3.44l-1.08-.77q1.26,2.29,2.53,4.58c-3.8,4.47-3,6.24-5.18,6.24a46.43,46.43,0,0,1-6.75-1.28c-4.43-10.19-4.85-17.83-8.67-23.65-2.73-4.16-1.12-8.78-4.33-12.21a7.19,7.19,0,0,1-2.55.4,29.44,29.44,0,0,1-5.14-.66,29.48,29.48,0,0,0-5.11-.66,5.73,5.73,0,0,0-3.46.92H341c.61,2.13.12,4.19-.49,6.49h0c-.72,2.7-1.59,5.73-1,9.53h-.23a3.3,3.3,0,0,1-.56,0l-.25,0c-.14,0-.24.08-.76.45,2.31,2.19-2.07,13.77-2.53,15.64-.37,1.48,1.24,2.74.72,4.58v2.28h-.36l-1.08.77c.85,1.72,1.16,1.94-.73,2.29a4.25,4.25,0,0,1-.72,3.05l-1.08.38Zm45.52-24.42,1.08,1.15-1.08-1.15Zm-132.95-1.52h0Zm110.91-27.09.36.76.36-.76Zm-8.11-.53c2.87,0,6.16.41,7.75,1.29,0-6.72-4.7-16.85-7.95-21.74l-1.08,1.14c.34.4.55.51.7.51a.36.36,0,0,0,.21-.08c.05,0,.09-.08.13-.08s.19.16.4.79c-1.61,1.27-3.73,15.92-4.7,18.7a14.83,14.83,0,0,1,4.54-.53Zm-.2-22v.76c.35-.66.33-.08,0-.76Zm-22.4-58v0Zm56.73,124.64a1.51,1.51,0,0,0-.37-.27h.72a1.61,1.61,0,0,0-.35.27Zm-267-14.51a44.27,44.27,0,0,1-14.44-2.16c.47-7.08,3.16-30.6,1.08-35.48a4.72,4.72,0,0,1-1.75.29,8.76,8.76,0,0,1-6.2-2.58L95,418.43a14.79,14.79,0,0,1,2.56-.2l1.3,0,1.26,0a11.87,11.87,0,0,0,2.46-.23c-1.87-6.75,2.93-36.31,5.78-40.82a4.88,4.88,0,0,0,1.6.69c.49,0,.59-.62,1.66-1.84,0,0,5.19.42,7.25.42a5.51,5.51,0,0,0,.69,0,29,29,0,0,1,4.87-.36c1.32,0,2.65.06,4,.11s2.79.12,4.29.12a45,45,0,0,0,7.78-.64l4.7-1.14,1,.16.11.22-.11-.22a28.44,28.44,0,0,0,4,.25,100.5,100.5,0,0,0,11.93-1.05,108.57,108.57,0,0,1,13.24-1,41.34,41.34,0,0,1,13.59,2.06v.76c-1.46.16-1.41.13-2.17.77,1,1.24.69.08.72,1.9-9,1.71-20,.23-29.62,3.06a8.7,8.7,0,0,1-2.21.22,23.78,23.78,0,0,1-6.82-1h-.13c-1.42,0-12.88,1.54-12.88,1.54a14.68,14.68,0,0,1-3.68.4c-1.29,0-2.62-.1-4-.2s-2.71-.21-4.06-.21a12.82,12.82,0,0,0-7.44,1.92l-1.08,1.52c1.26,2.42-1,22.59-2.53,25.18,1.18.51,0,5.83.72,8.78,1.17-.15,6.09-.27,11.62-.27,8.09,0,17.5.25,18.37,1,.92-.74,4.16-1,7.82-1,5.86,0,12.77.59,12.77.59a16.55,16.55,0,0,0,4.74.65,34.14,34.14,0,0,0,4.3-.33v0l.8-.1a40.78,40.78,0,0,1,5.05-.42,14.75,14.75,0,0,1,7.87,2.11l-.72,1.14c-.95,1.08-.35,2.27-1.81,3.44A20.4,20.4,0,0,1,177,427.8a14.31,14.31,0,0,1-5.73-1c-.11,0-7.43.75-12.74.75-2.72,0-4.91-.19-5.33-.75a9,9,0,0,0-1.35-.1,19.85,19.85,0,0,0-3.75.48,21.56,21.56,0,0,1-3.93.47,10.12,10.12,0,0,1-1.44-.09l-29.63-1.53-.36.77c0,6.88-.12,16.11-.55,23.9l-.89-.63.36,1.14.52-.27c0,.87-.1,1.73-.16,2.56l1.8.39c10-2.81,25.92-1.38,36.49-6.49a3.52,3.52,0,0,1,1.57-.3c.47,0,1,.05,1.49.1s1.06.1,1.6.1a5.08,5.08,0,0,0,3.29-1,4.49,4.49,0,0,1,2.91-1,14.16,14.16,0,0,1,3.31.56,14.3,14.3,0,0,0,3.39.56,5.18,5.18,0,0,0,3-.91,20.89,20.89,0,0,0,9.39,2.29v1.91c-1.74.28-1.73,1.17-2.17,3.43-1.21-.08-2.43-.12-3.68-.12-9.23,0-19.41,2.19-29.68,4.38s-20.64,4.39-30.23,4.39Zm-1.8-43.75c0,1.17-.35.54.36,1.53l-.36-1.53Zm67.56,34-.72-1.15c1.09.75.37.13.72,1.15Zm-68.12-1c0-.08,0-.16,0-.24l.19.13-.2.11Zm170.72-1.63a61.67,61.67,0,0,0-16-1.77c-3,0-6,.12-9,.24s-5.81.24-8.57.24a52.22,52.22,0,0,1-8.76-.62c-8.12-1.39-19.69-.74-27.09-4.2l-8.31-.38A102.11,102.11,0,0,0,185.67,439l.72-3.06c-.92-7.77,2.25-14.89,4.7-22.89,3.14-10.26,7.53-33.42,13.36-41.2.9-1.2,2.52-17.79,3.62-21.37s2.9-7.92,3.25-10.68c2.48.25,6.42,0,8,1.91-.92,4.55-.62,15.06-4,19.07.72,1.21-.42,9.27-.72,9.92-7.34,16.15-18.06,49.17-17,64.1h1.08c8.79,2.33,18.09,2.33,24.21,3.81a12.53,12.53,0,0,0,3,.33,34.32,34.32,0,0,0,3.57-.24,32.73,32.73,0,0,1,3.27-.24c1.74,0,3.21.36,4.21,1.68,0,0,11,.29,11.2.38a4.85,4.85,0,0,0,2.21.41,28.7,28.7,0,0,0,4.38-.5,26.66,26.66,0,0,1,4.11-.51,2.41,2.41,0,0,1,1.94.6c4.46,1.21,22.35-1.49,24.21,5h-2.53l1.45,1.91-1.09,1.91Zm58.17-3h0Zm45-5.72c-2,0-4.09-.37-4.54-1.15-1.6-2.08-15.27-25.59-16.26-32.05-1.22.34-.48.32-1.44.38-.58-2.89-1.93-3.35-2.53-4.58-1.41-2.88-.16-5.26-1.81-8.77l2.89-3.44,7.23,1.15c2.42,1.06,3.82,4.22,5.78,5.72,7.43,5.7,16,9.35,24.93,13.36v-.77c1.45-4.77-9-24-4.34-30.52-11-.59-17.46-2.48-28.54-3.43v-1.15c-.85-6.29,12-6.15,18.06-8.39.25.12.49.25.73.38l-.36.76c-2.58.42-3.84.86-5.06,2.67l2.17,1.15.72-1.53c.81.72,17,2.24,26.32,2.24a32.12,32.12,0,0,0,5.47-.33l-.72,1.14a5.37,5.37,0,0,1,1.89-.34,8.67,8.67,0,0,1,1.56.17,8.54,8.54,0,0,0,1.54.18,4.78,4.78,0,0,0,1.87-.39c-.53-3.59.1-7.83,1.45-12.59,2.33.49,5.42-.29,7.58,1.91-1.58,1.29,1.32,1.8,1.45,3.82h-1.45c1.61,3.66.5,5.34,2.53,8.77a19.66,19.66,0,0,1,2.13-.1c11,0,35.51,6.83,39.06,17.27l-1.45.38,1.81,2.67-1.45-.38c4.38,17-17.65,30.55-30,37.39l.36-1.53c-5.91,3.91-11.47,6-17.49,6a31.26,31.26,0,0,1-8.88-1.38c-.9-7.44-.23-30.88,3.25-35.48,0,0,.12-16.08.72-17.93l-1.08-1.91a24.6,24.6,0,0,1-5.89.58c-3.54,0-7.32-.46-8.93-1.34.13.51.25,1,.37,1.52.06,2.79,1.95,16.17,4.69,19.08l-.36,1.14c-.54-.43-.44-.61-.49-.61s-.15.09-.59.23c.39.9.87,1.88,1.37,2.88l-.29-.21v1.15h.77a27.52,27.52,0,0,1,2.12,5l-1.44-.38c1.71,3.3,2.58,2.49,2.53,6.48l1.44-1.52c0,2.15.25,1.53,1.45,3.05-1.26,1.17-.91,2.65-1.09,4.19-1.22.1-1.49.4-2.89,1.15-1.72-1.88-8.66.07-12.28-2.29-7-4.53-16-7.5-23.85-11.45a21.37,21.37,0,0,0,1.45,4.76v0c1.4,3.25,3.24,5.66,4,9h1.09c-.47,1.1-.9.11-.36,1.14.67,2.24,1.75,2.26,2.52,4.2a1.15,1.15,0,0,1-.77-.22s-.06.13-.31.6c2.89.76,4,4,6.5,5.72a4.85,4.85,0,0,0,.73,3.44c-.73,1.53-.59,2-1.81,2.67-.45.5-2.07.77-3.77.77Zm-.57-11.45v0ZM431,401.65c.1.22.21.45.32.67-.79,7.14-1.89,13.62-2.85,15h1.44c-1.85,2.85-.47,6.15-2.17,9.54,11-4.57,30.7-9.49,34.69-26.71,3.1-13.4-17.93-17.93-30-17.93h-.36c.58,3.37.11,12.16-.76,20.13-.11-.22-.22-.45-.32-.67Zm21.67,22.89v0Zm-91.4-23.66.72.39-.72-.39Zm46.6-3.81.73.38-.73-.38ZM472.52,391l.72,1.15h.37v-.38l-1.09-.77Zm-92.85-19.84v0ZM173.39,420.28v0Zm204.84-7v0Zm32.88-8.95h-.32l-.48-.94.8.56v.38Zm20.23-1.91,0-.09,0,.09ZM407.13,381h-1.08v-.76l1.08.76Zm-260.95-6.32-.25-.54.25.54Zm287.32-2.45-.72-.76.72.76Zm-45.88-5v-.76h.72l-.72.76Z" transform="translate(-64.89 -298.6)"/></svg>